<?xml version="1.0" encoding="UTF-8" standalone="no"?>
<svg
   xmlns:dc="http://purl.org/dc/elements/1.1/"
   xmlns:cc="http://creativecommons.org/ns#"
   xmlns:rdf="http://www.w3.org/1999/02/22-rdf-syntax-ns#"
   xmlns:svg="http://www.w3.org/2000/svg"
   xmlns="http://www.w3.org/2000/svg"
   xmlns:sodipodi="http://sodipodi.sourceforge.net/DTD/sodipodi-0.dtd"
   xmlns:inkscape="http://www.inkscape.org/namespaces/inkscape"
   inkscape:version="1.0 (4035a4fb49, 2020-05-01)"
   sodipodi:docname="cianosimple.svg"
   id="svg216"
   version="1.1"
   viewBox="0 0 537.19 499.8">
  <metadata
     id="metadata220">
    <rdf:RDF>
      <cc:Work
         rdf:about="">
        <dc:format>image/svg+xml</dc:format>
        <dc:type
           rdf:resource="http://purl.org/dc/dcmitype/StillImage" />
      </cc:Work>
    </rdf:RDF>
  </metadata>
  <sodipodi:namedview
     inkscape:current-layer="svg216"
     inkscape:window-maximized="1"
     inkscape:window-y="-8"
     inkscape:window-x="-8"
     inkscape:cy="249.89999"
     inkscape:cx="178.48129"
     inkscape:zoom="1.7366947"
     showgrid="false"
     id="namedview218"
     inkscape:window-height="1018"
     inkscape:window-width="1920"
     inkscape:pageshadow="2"
     inkscape:pageopacity="0"
     guidetolerance="10"
     gridtolerance="10"
     objecttolerance="10"
     borderopacity="1"
     bordercolor="#666666"
     pagecolor="#ffffff" />
  <defs
     id="defs4">
    <style
       id="style2">
            .cls-1,.cls-10{isolation:isolate;}.cls-2{fill:#a3da4b;}.cls-3{fill:#2e302e;}.cls-4{font-size:19.84px;}.cls-14,.cls-17,.cls-27,.cls-31,.cls-37,.cls-39,.cls-4{font-family:Montserrat-Bold,
            Montserrat;font-weight:700;}.cls-5{letter-spacing:-0.02em;}.cls-6{letter-spacing:0em;}.cls-7{fill:#318c5a;}.cls-10,.cls-25,.cls-43,.cls-8{fill:none;}.cls-8{stroke:#d17522;}.cls-10,.cls-8,.cls-9{stroke-linecap:round;stroke-linejoin:round;}.cls-45,.cls-47,.cls-9{fill:#b5e55a;}.cls-10,.cls-9{stroke:#318c5a;}.cls-9{stroke-width:6.99px;}.cls-10{stroke-width:5.15px;opacity:0.54;}.cls-11{fill:#4cc1be;}.cls-12,.cls-16{fill:#1b676b;}.cls-13{fill:#c6c6c6;}.cls-14{font-size:24.74px;}.cls-15{letter-spacing:-0.01em;}.cls-16,.cls-38{opacity:0.8;}.cls-17{font-size:12.4px;}.cls-17,.cls-39{fill:#fff;}.cls-18{letter-spacing:0em;}.cls-19{letter-spacing:-0.01em;}.cls-20{letter-spacing:0em;}.cls-21{letter-spacing:-0.01em;}.cls-22{letter-spacing:0em;}.cls-23{letter-spacing:-0.02em;}.cls-24{letter-spacing:-0.02em;}.cls-25,.cls-43{stroke:#2e302e;stroke-miterlimit:10;}.cls-25{stroke-width:5px;}.cls-26{fill:#bfebce;}.cls-27{font-size:20.96px;}.cls-28{letter-spacing:0em;}.cls-29{letter-spacing:0em;}.cls-30{letter-spacing:-0.04em;}.cls-31{font-size:16.87px;}.cls-32{letter-spacing:0.01em;}.cls-33{letter-spacing:-0.01em;}.cls-34{letter-spacing:0em;}.cls-35{letter-spacing:-0.01em;}.cls-36{letter-spacing:-0.02em;}.cls-37{font-size:23.55px;}.cls-39{font-size:17.63px;}.cls-40{letter-spacing:0.01em;}.cls-41{letter-spacing:0em;}.cls-42{opacity:0.53;}.cls-43{stroke-width:2px;}.cls-44{letter-spacing:-0.02em;}.cls-46,.cls-48{fill:#f5b400;}.cls-47,.cls-48{mix-blend-mode:multiply;}
        </style>
  </defs>
  <g
     onload=""
     onclick="alert('a chupar agudo zorrita')"
     id="g214"
     class="cls-1">
    <g
       data-name="Layer 2"
       id="Layer_2">
      <g
         data-name="Layer 5"
         id="Layer_5">
        <path
           id="path6"
           d="M368.5,265.47S273,237.71,240.38,125.33-28.67,38.83,4.23,220,232.12,442.36,297.68,441.5c44.23-.59,162.53-18.95,187.1-127a15,15,0,0,0,.39-3.48c0-9-2.76-46.4-47.08-44.54C387.74,268.57,380.18,268.24,368.5,265.47Z"
           class="cls-2" />
        <g
           data-name="Layer 3"
           id="Layer_3">
          <path
             id="path8"
             d="M94.23,165.4a29.46,29.46,0,0,1-4.5-.35,1.56,1.56,0,0,1,.49-3.09,25.32,25.32,0,0,0,5.29.29,1.56,1.56,0,0,1,.16,3.12Zm6.92-.9a1.56,1.56,0,0,1-.4-3.07,24.87,24.87,0,0,0,5-1.88,1.56,1.56,0,1,1,1.41,2.78,28.09,28.09,0,0,1-5.56,2.12A1.37,1.37,0,0,1,101.15,164.5Zm-16.61-.9a1.36,1.36,0,0,1-.56-.11,27.92,27.92,0,0,1-5.3-2.72,1.56,1.56,0,1,1,1.71-2.61,25,25,0,0,0,4.71,2.42,1.56,1.56,0,0,1-.56,3Zm26.59-4.15a1.56,1.56,0,0,1-1-2.78,25.13,25.13,0,0,0,3.49-3.43l.27-.31a1.56,1.56,0,0,1,2.42,2l-.3.36a28.52,28.52,0,0,1-3.92,3.85A1.57,1.57,0,0,1,111.13,159.45Zm-36-2a1.52,1.52,0,0,1-1.1-.46,28.09,28.09,0,0,1-3.74-4.63A1.56,1.56,0,1,1,73,150.69a25.34,25.34,0,0,0,3.33,4.12,1.56,1.56,0,0,1-1.11,2.66Zm43-6.71a1.65,1.65,0,0,1-.71-.17,1.56,1.56,0,0,1-.67-2.1,25.56,25.56,0,0,0,1.9-5,1.56,1.56,0,0,1,3,.81,28.18,28.18,0,0,1-2.15,5.56A1.55,1.55,0,0,1,118.19,150.76ZM121.11,140H121a1.56,1.56,0,0,1-1.47-1.64q0-.67,0-1.35a24.85,24.85,0,0,0-.31-4,1.56,1.56,0,0,1,3.09-.48,28.55,28.55,0,0,1,.34,4.43c0,.51,0,1,0,1.52A1.55,1.55,0,0,1,121.11,140Zm-1.74-11a1.57,1.57,0,0,1-1.46-1,25.2,25.2,0,0,0-2.39-4.72,1.56,1.56,0,1,1,2.61-1.7,28.52,28.52,0,0,1,2.7,5.31,1.56,1.56,0,0,1-.9,2A1.59,1.59,0,0,1,119.37,128.9Zm-6.09-9.39a1.58,1.58,0,0,1-1.1-.46c-.52-.52-1.07-1-1.64-1.5a24.47,24.47,0,0,0-2.48-1.84,1.56,1.56,0,0,1,1.71-2.62,30.82,30.82,0,0,1,2.78,2.07c.63.53,1.25,1.1,1.84,1.68a1.56,1.56,0,0,1,0,2.21A1.6,1.6,0,0,1,113.28,119.51Zm-36-1.91a1.56,1.56,0,0,1-1-2.78,28.25,28.25,0,0,1,5-3.24,1.56,1.56,0,1,1,1.41,2.78,24.87,24.87,0,0,0-4.44,2.89A1.57,1.57,0,0,1,77.32,117.6Zm26.58-4.2a1.64,1.64,0,0,1-.56-.11,25.52,25.52,0,0,0-5.11-1.37,1.56,1.56,0,0,1,.48-3.08,28.64,28.64,0,0,1,5.76,1.54,1.56,1.56,0,0,1-.57,3Zm-16.61-.88a1.56,1.56,0,0,1-.4-3.07,28.57,28.57,0,0,1,5.88-.92,1.56,1.56,0,1,1,.16,3.11,25.78,25.78,0,0,0-5.24.83A1.83,1.83,0,0,1,87.29,112.52Z"
             class="cls-3" />
          <path
             id="path10"
             d="M69.73,116.11a7.42,7.42,0,1,0,7,7.88A7.43,7.43,0,0,0,69.73,116.11Zm-.13,2.12a5.3,5.3,0,1,1-5.63,5A5.3,5.3,0,0,1,69.6,118.23Z"
             class="cls-3" />
        </g>
        <text
           id="text17"
           transform="translate(50.21 148.4)"
           class="cls-4">M
                    <tspan
   id="tspan13"
   y="0"
   x="18.95"
   class="cls-5">C</tspan><tspan
   id="tspan15"
   y="0"
   x="33.19"
   class="cls-6">G</tspan></text>
      </g>
      <g
         data-name="Layer 3"
         id="Layer_3-2">
        <path
           id="path20"
           d="M422.45,313.8c-.2.2-.15,1.06-1.43,0s-4.28-7.07-4.28-7.07,2.24,9.23,1.78,9.54-.67,1-1.68-.26-3-8.5-3-8.5c-.38,2.39,1.6,8.48,1.16,9.1s-.72.73-1.67.05-2.61-10.05-2.34-6.14-.33,5.67-.42,5.67.13.76-1.11-.77c-5.29-6.52-2.66-30.27,18.66-38.46s32.82,13.29,36.79,21.43,2.15,24.08-11.12,30.63-23.49,4.68-25.13,4-1.06-1.47-.27-1.86,6.53-2.18,6.53-2.18c-2.21.28-9.7.28-10.53-.69s-.55-1.7,1.38-2.31,10.68-.76,10.68-.76-8.43-1.1-10.66-2.55-.42-2.86,1.17-3,10.61,2.17,10.61,2.17c-4.33-.49-7.13-3.34-8.56-4.77s.74-3.29,2.45-2,8.2,3.19,8.2,3.19.82.06-1.33-2.78-1.38-3.3-.69-4,3.29,1.86,4.45,3.2a9.7,9.7,0,0,0,4.48,2.87c8.8,1.13,9.06-8.12,9.06-8.12-5-33.77-28.15-22.12-32.46-17.93s4.06,10.93,4.25,11.32,1.33,1.88-1.71,3.15-5.79-5-5.79-5C418.62,303.72,422.63,313.59,422.45,313.8Z"
           class="cls-7" />
        <path
           id="path22"
           d="M445.94,297.75c-.62-2.45-6.52-2-8.2-1.19-3.33,1.53,2.41,10.42,2.41,9.17,0-12.57.6-1.86-7.65-3.13-5.22-.81.68-10,5.36-8.67,8.16,2.3-.92,6.2-.64,10.57.31,4.7,6.44,5,9.48,2.78,11.23-8-23.52,5.33-13.46-7.52,8.57-10.93,1.48,14.92,10.27,9.69.83-.49-1.91-.32-2.86-.48-12-2.1.92-5.53,2.36-8.55,4.43-9.21-8.55-1.22-4.79-.93,1,.08-7.91-3.17-4.13-5.67,10.4-6.88,12.25,16,14.5,13.39,3.91-4.56.23-9.63-5-6.35-9.88,6.14,9.16-11.79-1-6-4.12,2.36,2.23,15.64-2.26,14.08-6.09-2.11-3.15-20.94-9-13.93-7.85,9.38,19.84,8,11.85,14.85"
           class="cls-8" />
        <g
           id="Trans">
          <path
             id="path24"
             d="M151.76,288.49l112.78,8a21.61,21.61,0,0,1,20,23.09h0a21.62,21.62,0,0,1-23.1,20l-112.78-8a21.62,21.62,0,0,1-20-23.09h0A21.61,21.61,0,0,1,151.76,288.49Z"
             class="cls-9" />
          <path
             id="path26"
             d="M142.47,304.47,262.85,313a21.43,21.43,0,0,1,19.86,22.9h0a21.44,21.44,0,0,1-22.91,19.87l-120.37-8.57a21.45,21.45,0,0,1-19.87-22.91h0A21.43,21.43,0,0,1,142.47,304.47Z"
             class="cls-9" />
          <path
             id="path28"
             d="M145.67,316.24h0A11.14,11.14,0,0,1,156,328.15h0a11.15,11.15,0,0,1-11.9,10.32h0a11.14,11.14,0,0,1-10.32-11.91h0A11.14,11.14,0,0,1,145.67,316.24Z"
             class="cls-10" />
          <path
             id="path30"
             d="M181.11,318.77h0a11.14,11.14,0,0,1,10.32,11.9h0A11.14,11.14,0,0,1,179.52,341h0a11.15,11.15,0,0,1-10.32-11.9h0A11.14,11.14,0,0,1,181.11,318.77Z"
             class="cls-10" />
          <path
             id="path32"
             d="M216.54,321.29h0a11.13,11.13,0,0,1,10.32,11.9h0A11.13,11.13,0,0,1,215,343.51h0a11.13,11.13,0,0,1-10.32-11.9h0A11.14,11.14,0,0,1,216.54,321.29Z"
             class="cls-10" />
          <path
             id="path34"
             d="M252,323.81h0a11.14,11.14,0,0,1,10.32,11.91h0A11.15,11.15,0,0,1,250.4,346h0a11.14,11.14,0,0,1-10.32-11.91h0A11.14,11.14,0,0,1,252,323.81Z"
             class="cls-10" />
          <path
             id="path36"
             d="M146.72,288.25l118.92,8.47c4.28.3,15.42,5.25,17.94,13.75l-.69,14.5c-5.89-9.77-9.61-12.88-22.88-14.45l-115.83-8.59c-4.28-.31-8.1-.38-13.76,3.52l4.5-9.94C137.22,290.92,142.43,287.94,146.72,288.25Z"
             class="cls-11" />
          <path
             id="path38"
             d="M255.57,334c-1.09-.07-2,.4-2.07,1.07s.81,1.27,1.9,1.35,2-.4,2.07-1.07S256.67,334.12,255.57,334Zm-12.28-9.38c-.55,0-1,.2-1,.53s.4.64.94.68,1-.2,1-.53S243.84,324.7,243.29,324.66Z"
             class="cls-12" />
          <path
             id="path40"
             d="M241.87,330.64l-21.81-1.56c-2.19-.15-4,.8-4.13,2.14l-.09,1.21,39.65,2.82,1.5-.72-13-9.64-1.72.3ZM242,342.8c-.55,0-1,.2-1,.54s.4.63.95.67,1-.2,1-.53S242.55,342.84,242,342.8Z"
             class="cls-12" />
          <path
             id="path42"
             d="M241.35,337.9l-21.8-1.56c-2.2-.15-3.89-1.36-3.8-2.7l.14-2.13,39.22,2.93,1.76,1.74-14.24,7.7-1.67-.54Z"
             class="cls-12" />
          <path
             id="path44"
             d="M182,328.8c-1.1-.08-2,.4-2.07,1.07s.8,1.27,1.89,1.35,2-.4,2.07-1.07S183.05,328.88,182,328.8Zm-12.29-9.38c-.54,0-1,.2-1,.53s.4.64,1,.68,1-.2,1-.54S170.22,319.46,169.67,319.42Z"
             class="cls-12" />
          <path
             id="path46"
             d="M168.25,325.39l-21.8-1.55c-2.19-.15-4,.8-4.14,2.14l-.09,1.21L181.87,330l1.5-.72-13-9.64-1.72.3Zm.13,12.17c-.55,0-1,.2-1,.54s.4.63,1,.67,1-.2,1-.53S168.93,337.6,168.38,337.56Z"
             class="cls-12" />
          <path
             id="path48"
             d="M167.74,332.63l-21.81-1.55c-2.19-.15-3.89-1.37-3.79-2.71l.14-2.13,39.22,2.93,1.76,1.74L169,338.64l-1.66-.55Z"
             class="cls-12" />
        </g>
        <rect
           id="rect51"
           transform="translate(-56.98 40.96) rotate(-12.39)"
           height="24.81"
           width="24.81"
           y="270.49"
           x="147.72"
           class="cls-12" />
        <rect
           id="rect53"
           transform="translate(-56.79 50.02) rotate(-12.39)"
           rx="9.25"
           height="24.81"
           width="24.81"
           y="274.14"
           x="189.54"
           class="cls-12" />
        <rect
           id="rect55"
           transform="translate(-56.66 58.81) rotate(-12.39)"
           rx="12.4"
           height="24.81"
           width="24.81"
           y="277.93"
           x="230.1"
           class="cls-12" />
        <path
           id="path57"
           d="M362.53,282.82a3,3,0,0,1-2,1.82c-2,.83-2.49,2.05-1.77,4.07a1.71,1.71,0,0,0,1.1,1,19.09,19.09,0,0,1,1.94.77,2.7,2.7,0,0,1,1.59,3.33,25.26,25.26,0,0,1-1.08,3,2.76,2.76,0,0,1-3.43,1.57,8.28,8.28,0,0,1-.81-.24c-2.3-.78-2.86-.61-4.16,1.28a1.68,1.68,0,0,0-.11,1.84c1.7,3.47,1.41,4-2.08,5.62-3.21,1.49-4.68.9-5.93-2.08a1.92,1.92,0,0,0-2.07-1.21q-.68,0-1.35,0a1.71,1.71,0,0,0-1.78,1.18c-.2.52-.37,1-.58,1.55a2.63,2.63,0,0,1-3.35,1.48,35.63,35.63,0,0,1-3.46-1.24,2.84,2.84,0,0,1-1.76-3.18,4.88,4.88,0,0,1,.2-.65c1-2.5.76-2.2-1.43-4.13a1.68,1.68,0,0,0-1.93-.27c-.52.24-1.05.47-1.59.66a2.91,2.91,0,0,1-3.75-1.3,26,26,0,0,1-1.57-3.06,2.4,2.4,0,0,1,1.32-3.42l.28-.12c2.7-1.08,2.34-1.11,2.12-4a1.45,1.45,0,0,0-1.09-1.23c-.65-.25-1.33-.46-1.95-.77a2.7,2.7,0,0,1-1.57-3.48c.31-.92.64-1.84,1-2.75a2.74,2.74,0,0,1,3.5-1.72q.3.07.6.18c2.46.83,2.91.69,4.37-1.26a1.46,1.46,0,0,0,.14-1.66c-.27-.54-.57-1.08-.82-1.62a2.36,2.36,0,0,1,1.07-3.36,27.55,27.55,0,0,1,3.34-1.44,3,3,0,0,1,3.65,1.38,2.37,2.37,0,0,1,.19.35c1.19,2.48,1.26,2.23,4,2.17a1.53,1.53,0,0,0,1.58-1.12,15.93,15.93,0,0,1,.58-1.55,2.77,2.77,0,0,1,3.55-1.5c1.1.34,2.18.74,3.25,1.16a2.68,2.68,0,0,1,1.74,3.4c0,.13-.08.25-.13.37-1,2.57-.52,2.52,1.56,4.29a1.69,1.69,0,0,0,1.86.24c.59-.25,1.17-.53,1.78-.74a2.8,2.8,0,0,1,3.42,1.21c.65,1.1,1.21,2.26,1.77,3.41A2,2,0,0,1,362.53,282.82ZM339.47,294.6c4.14,1.49,8.37-.29,9.76-4.12s-.71-8-4.9-9.47-8.42.33-9.81,4.1S335.31,293.1,339.47,294.6Z"
           class="cls-7" />
      </g>
      <g
         data-name="Layer 6"
         id="Layer_6">
        <path
           id="path60"
           d="M.48,62.33,104,61.21s6.42-71.64-51.37-38.38c0,0-3.62-24.49-30.7-22.74S.48,62.33.48,62.33Z"
           class="cls-13" />
        <text
           id="text66"
           transform="translate(25.46 48.93)"
           class="cls-14"><tspan
             id="tspan62"
             class="cls-15">C</tspan><tspan
             id="tspan64"
             y="0"
             x="17.77">O2</tspan></text>
        <rect
           id="rect68"
           rx="17.29"
           height="34.58"
           width="96.92"
           y="229.37"
           x="32.25"
           class="cls-16" />
        <text
           id="text88"
           transform="translate(43.07 250.88)"
           class="cls-17"><tspan
             id="tspan70"
             class="cls-18">A</tspan><tspan
             id="tspan72"
             y="0"
             x="9.44"
             class="cls-19">c</tspan><tspan
             id="tspan74"
             y="0"
             x="16.68"
             class="cls-20">e</tspan><tspan
             id="tspan76"
             y="0"
             x="24.51"
             class="cls-21">t</tspan><tspan
             id="tspan78"
             y="0"
             x="29.78">yl</tspan><tspan
             id="tspan80"
             y="0"
             x="40.93"
             class="cls-22">-</tspan><tspan
             id="tspan82"
             y="0"
             x="45.77"
             class="cls-23">C</tspan><tspan
             id="tspan84"
             y="0"
             x="54.62"
             class="cls-24">o</tspan><tspan
             id="tspan86"
             y="0"
             x="62.5"
             class="cls-20">A</tspan></text>
        <path
           id="path90"
           d="M80.23,271.69s3,28.59,22.5,35.83"
           class="cls-25" />
        <polygon
           id="polygon92"
           points="90.98 313.19 101.32 307.11 95.23 296.78 102.19 298.58 108.28 308.91 97.95 314.99 90.98 313.19"
           class="cls-3" />
        <path
           id="path94"
           d="M121.35,169.79s21.51,31-5,50.3"
           class="cls-25" />
        <polygon
           id="polygon96"
           points="120.08 207.53 117.55 219.25 129.28 221.77 123.23 225.67 111.51 223.16 114.03 211.44 120.08 207.53"
           class="cls-3" />
        <path
           id="path98"
           d="M46.74,64.7s-5.44,28.66,9.72,44"
           class="cls-25" />
        <polygon
           id="polygon100"
           points="43.42 108.71 55.37 107.67 54.32 95.72 59.83 100.35 60.88 112.29 48.93 113.34 43.42 108.71"
           class="cls-3" />
        <path
           id="path102"
           d="M394.75,322.54A15,15,0,0,1,365,326c-.91-8,14-30.09,14-30.09C379.54,295.9,393.83,314.51,394.75,322.54Z"
           class="cls-12" />
        <path
           id="path104"
           d="M386.49,331.93a22.76,22.76,0,0,0,2.22-3.05,15.13,15.13,0,0,0,1.48-3.35,13.27,13.27,0,0,0,.38-1.77,13.83,13.83,0,0,0,.12-1.83,18.79,18.79,0,0,0-.48-3.74,9.1,9.1,0,0,1,1.33,3.68,9.54,9.54,0,0,1,.06,2,10.17,10.17,0,0,1-.37,2,10.38,10.38,0,0,1-1.83,3.52A9.74,9.74,0,0,1,386.49,331.93Z"
           class="cls-26" />
        <path
           id="path106"
           d="M284.26,374s22.33,10,38.18,1"
           class="cls-25" />
        <polygon
           id="polygon108"
           points="319.29 387.72 321.22 375.88 309.38 373.96 315.22 369.76 327.06 371.68 325.13 383.51 319.29 387.72"
           class="cls-3" />
        <text
           id="text120"
           transform="translate(415.25 436.47) rotate(-0.7)"
           class="cls-27"><tspan
             id="tspan110"
             class="cls-28">A</tspan><tspan
             id="tspan112"
             y="0"
             x="15.95">c</tspan><tspan
             id="tspan114"
             y="0"
             x="28.33"
             class="cls-29">r</tspan><tspan
             id="tspan116"
             y="0"
             x="37.28"
             class="cls-30">b</tspan><tspan
             id="tspan118"
             y="0"
             x="50.9">V2</tspan></text>
        <text
           id="text138"
           transform="matrix(1, 0.05, -0.05, 1, 123.88, 374.19)"
           class="cls-31">Buta
                    <tspan
   id="tspan122"
   y="0"
   x="42.23"
   class="cls-32">n</tspan><tspan
   id="tspan124"
   y="0"
   x="53.99">ol</tspan><tspan
   id="tspan126"
   y="0"
   x="74.89"
   class="cls-33">P</tspan><tspan
   id="tspan128"
   y="0"
   x="86.98"
   class="cls-34">at</tspan><tspan
   id="tspan130"
   y="0"
   x="104.72"
   class="cls-35">h</tspan><tspan
   id="tspan132"
   y="0"
   x="116.21"
   class="cls-36">w</tspan><tspan
   id="tspan134"
   y="0"
   x="131.71"
   class="cls-35">a</tspan><tspan
   id="tspan136"
   y="0"
   x="141.95">y</tspan></text>
        <text
           id="text140"
           transform="translate(311.08 255.01) rotate(-1.06)"
           class="cls-37">SigB</text>
        <g
           id="g144"
           class="cls-38">
          <rect
             id="rect142"
             rx="17.29"
             height="34.58"
             width="96.92"
             y="344.81"
             x="332.04"
             class="cls-12" />
        </g>
        <text
           id="text150"
           transform="translate(343.86 368.73) rotate(-1.06)"
           class="cls-39">Buta
                    <tspan
   id="tspan146"
   y="0"
   x="44.14"
   class="cls-40">n</tspan><tspan
   id="tspan148"
   y="0"
   x="56.43"
   class="cls-41">ol</tspan></text>
        <g
           id="g186"
           class="cls-42">
          <path
             id="path152"
             d="M210.46,184.91s18.46,14.21-1.86,37.61"
             class="cls-43" />
          <polygon
             id="polygon154"
             points="208.52 217.93 208.88 222.09 213.04 221.72 211.43 223.64 207.27 224 206.91 219.85 208.52 217.93"
             class="cls-3" />
          <path
             id="path156"
             d="M116.68,42.46c-4.31-1,109.3,0,76.48,109.37"
             class="cls-43" />
          <polygon
             id="polygon158"
             points="190.92 147.06 193.26 151.24 197.45 148.9 196.67 151.67 192.49 154.01 190.14 149.83 190.92 147.06"
             class="cls-3" />
          <path
             id="path160"
             d="M176.11,240.43s-23.67,14.21-40.86,4"
             class="cls-43" />
          <polygon
             id="polygon162"
             points="140.44 243.74 135.75 244.75 136.76 249.43 134.34 247.87 133.33 243.18 138.02 242.18 140.44 243.74"
             class="cls-3" />
          <path
             id="path164"
             d="M175.42,169.55a9,9,0,0,1,2-5.73,7.32,7.32,0,0,1,2.46-2,7.55,7.55,0,0,1,3.35-.78,6.91,6.91,0,0,1,3.85,1,6.23,6.23,0,0,1,2.39,2.58l-1.28.83a4.87,4.87,0,0,0-1.4-1.73,5.49,5.49,0,0,0-1.77-.9,6.25,6.25,0,0,0-1.85-.25,5.73,5.73,0,0,0-2.65.65,5.93,5.93,0,0,0-1.91,1.64,7,7,0,0,0-1.15,2.26,8.33,8.33,0,0,0-.36,2.51,7.72,7.72,0,0,0,.52,2.66,7.37,7.37,0,0,0,1.36,2.22,6.52,6.52,0,0,0,2,1.52,5.53,5.53,0,0,0,2.5.53,6,6,0,0,0,1.92-.37,6,6,0,0,0,1.83-1,5,5,0,0,0,1.35-1.8L190,174a5.28,5.28,0,0,1-1.57,2.15,7.67,7.67,0,0,1-2.39,1.37,8.06,8.06,0,0,1-2.59.49,6.75,6.75,0,0,1-3.17-.68,8.19,8.19,0,0,1-2.52-1.93,9.06,9.06,0,0,1-1.66-2.75A8.94,8.94,0,0,1,175.42,169.55Z" />
          <path
             id="path166"
             d="M205.33,173.19a3.93,3.93,0,0,1-.59,2.23,4.46,4.46,0,0,1-1.68,1.57,5,5,0,0,1-2.33.59l-7.89.15L192.53,161l8.05-.15a3.37,3.37,0,0,1,2,.59A4.11,4.11,0,0,1,204,163a4.86,4.86,0,0,1,.5,2,4.44,4.44,0,0,1-.6,2.32,3.9,3.9,0,0,1-1.73,1.61,4.21,4.21,0,0,1,2.3,1.54A4.41,4.41,0,0,1,205.33,173.19ZM194.2,162.42l.12,6.17,5.75-.11a2.52,2.52,0,0,0,1.45-.46,3.24,3.24,0,0,0,1.34-2.68,3.39,3.39,0,0,0-.38-1.53,3,3,0,0,0-1-1.1,2.34,2.34,0,0,0-1.4-.4Zm9.48,10.51a3.28,3.28,0,0,0-.4-1.55,3.23,3.23,0,0,0-1.05-1.15,2.54,2.54,0,0,0-1.48-.42l-6.41.12.12,6.33,6.24-.11a2.69,2.69,0,0,0,1.52-.48,3.43,3.43,0,0,0,1.08-1.19A3.1,3.1,0,0,0,203.68,172.93Z" />
          <path
             id="path168"
             d="M221,172.9a4,4,0,0,1-.6,2.23,4.36,4.36,0,0,1-1.68,1.56,4.83,4.83,0,0,1-2.33.6l-7.89.15-.31-16.72,8-.15a3.37,3.37,0,0,1,2.05.59,4.11,4.11,0,0,1,1.35,1.57,4.71,4.71,0,0,1,.5,2,4.46,4.46,0,0,1-.59,2.32,3.93,3.93,0,0,1-1.74,1.61,4.21,4.21,0,0,1,2.3,1.54A4.48,4.48,0,0,1,221,172.9Zm-11.13-10.77.11,6.16,5.75-.1a2.58,2.58,0,0,0,1.45-.46,3.28,3.28,0,0,0,1.34-2.68,3.36,3.36,0,0,0-.38-1.53,3.13,3.13,0,0,0-1-1.11,2.41,2.41,0,0,0-1.4-.39Zm9.47,10.51a3.28,3.28,0,0,0-.4-1.55,3.15,3.15,0,0,0-1.05-1.15,2.54,2.54,0,0,0-1.48-.42l-6.4.12.11,6.33,6.24-.11a2.72,2.72,0,0,0,1.53-.48,3.41,3.41,0,0,0,1.07-1.19A3.1,3.1,0,0,0,219.36,172.64Z" />
          <path
             id="path170"
             d="M174.5,236.71l-.17-8.92,3.7-.07a2.22,2.22,0,0,1,1.06.22,2.52,2.52,0,0,1,.85.63,3.22,3.22,0,0,1,.57.89,2.78,2.78,0,0,1,.22,1,3.08,3.08,0,0,1-.29,1.38,2.79,2.79,0,0,1-.88,1.07,2.36,2.36,0,0,1-1.35.43l-2.89.05.06,3.29Zm.8-4.09,2.85-.05a1.52,1.52,0,0,0,.92-.31,2,2,0,0,0,.59-.76,2.46,2.46,0,0,0,.19-1,2.21,2.21,0,0,0-.27-1,2.11,2.11,0,0,0-.67-.72,1.62,1.62,0,0,0-.91-.25l-2.77.05Z" />
          <path
             id="path172"
             d="M186.81,236.48l-2.48-3.3L183,234.51l0,2-.85,0-.17-9.18h.85l.12,6.21,3.64-3.63.94,0-2.63,2.72,2.85,3.8Z" />
          <path
             id="path174"
             d="M198.85,234a2.11,2.11,0,0,1-.32,1.19,2.32,2.32,0,0,1-.9.83,2.6,2.6,0,0,1-1.24.32l-4.21.08-.17-8.92,4.3-.08a1.81,1.81,0,0,1,1.09.31,2.25,2.25,0,0,1,.72.84,2.61,2.61,0,0,1,.27,1.08,2.32,2.32,0,0,1-.32,1.24,2.12,2.12,0,0,1-.92.86,2.23,2.23,0,0,1,1.22.82A2.37,2.37,0,0,1,198.85,234Zm-5.94-5.75.06,3.29,3.06-.06a1.29,1.29,0,0,0,.78-.24,1.77,1.77,0,0,0,.53-.62,1.65,1.65,0,0,0,.18-.81,1.72,1.72,0,0,0-.2-.82,1.51,1.51,0,0,0-.53-.59,1.19,1.19,0,0,0-.74-.21Zm5.05,5.61a1.68,1.68,0,0,0-.21-.83,1.73,1.73,0,0,0-.56-.61,1.36,1.36,0,0,0-.79-.23l-3.42.07.06,3.38,3.33-.06a1.53,1.53,0,0,0,.82-.26,1.73,1.73,0,0,0,.57-.63A1.62,1.62,0,0,0,198,233.82Z" />
          <path
             id="path176"
             d="M200.71,238.23l.34,0a.7.7,0,0,0,.24,0,.58.58,0,0,0,.29-.18,2.2,2.2,0,0,0,.31-.58l.51-1.26-3-6.48.91,0,2.5,5.61,2.11-5.69.85,0-3.23,8.49a1.46,1.46,0,0,1-.26.45,1.18,1.18,0,0,1-.43.33,1.82,1.82,0,0,1-.63.15H201l-.28,0Z" />
          <path
             id="path178"
             d="M210.45,236.17a2.67,2.67,0,0,1-1.47-.4,3.3,3.3,0,0,1-1-1l.07,4-.85,0-.17-9.2h.76l0,1.27a3,3,0,0,1,1-1,2.68,2.68,0,0,1,1.39-.41,2.75,2.75,0,0,1,1.25.26,3,3,0,0,1,1,.74,3.28,3.28,0,0,1,.67,1.07,3.53,3.53,0,0,1,.26,1.25,3.89,3.89,0,0,1-.34,1.68,3.17,3.17,0,0,1-1,1.26A2.7,2.7,0,0,1,210.45,236.17Zm-.25-.75a2.17,2.17,0,0,0,1.69-.85,2.57,2.57,0,0,0,.45-.85,2.63,2.63,0,0,0,.15-1,2.73,2.73,0,0,0-.2-1,2.61,2.61,0,0,0-1.33-1.39,2.17,2.17,0,0,0-1-.19,1.83,1.83,0,0,0-.67.14,2.56,2.56,0,0,0-.67.36,2.6,2.6,0,0,0-.52.53,1.35,1.35,0,0,0-.26.62l0,2a3,3,0,0,0,.56.81,2.49,2.49,0,0,0,.79.58A2.16,2.16,0,0,0,210.2,235.42Z" />
          <path
             id="path180"
             d="M214.3,234.1a1.6,1.6,0,0,1,.33-1.06,2.2,2.2,0,0,1,1-.71,3.93,3.93,0,0,1,1.44-.27,5.6,5.6,0,0,1,1,.06,3.89,3.89,0,0,1,.92.21v-.56a1.79,1.79,0,0,0-.51-1.3,1.84,1.84,0,0,0-1.37-.46,3.1,3.1,0,0,0-1,.21,5.18,5.18,0,0,0-1.05.6l-.34-.6a6,6,0,0,1,1.24-.69,3.91,3.91,0,0,1,1.26-.24,2.64,2.64,0,0,1,1.92.65,2.55,2.55,0,0,1,.74,1.89l.05,3a.41.41,0,0,0,.08.25.32.32,0,0,0,.24.09l0,.68-.24,0a.36.36,0,0,1-.15,0,.62.62,0,0,1-.48-.19.68.68,0,0,1-.19-.4l0-.48a2.81,2.81,0,0,1-1.13.9,3.59,3.59,0,0,1-1.42.33,2.38,2.38,0,0,1-1.14-.24,2.08,2.08,0,0,1-.81-.71A2,2,0,0,1,214.3,234.1Zm4.39.41a1.85,1.85,0,0,0,.21-.34.68.68,0,0,0,.07-.29l0-.94a5,5,0,0,0-.89-.23,4,4,0,0,0-.92-.07,2.79,2.79,0,0,0-1.48.38,1.11,1.11,0,0,0-.54,1,1.25,1.25,0,0,0,.2.67,1.49,1.49,0,0,0,.56.52,1.79,1.79,0,0,0,.86.19,2.88,2.88,0,0,0,1.14-.26A2,2,0,0,0,218.69,234.51Z" />
          <path
             id="path182"
             d="M223.86,235.92a4.14,4.14,0,0,1-1.5-.24,3.23,3.23,0,0,1-1.21-.78l.34-.61a3.8,3.8,0,0,0,1.13.73,3.18,3.18,0,0,0,1.19.21,2.27,2.27,0,0,0,1.24-.33,1,1,0,0,0,.46-.89.73.73,0,0,0-.24-.59,1.82,1.82,0,0,0-.67-.32c-.3-.08-.64-.17-1-.26a7.58,7.58,0,0,1-1.14-.38,1.66,1.66,0,0,1-.7-.51,1.39,1.39,0,0,1-.25-.83,1.68,1.68,0,0,1,.3-1.06,2,2,0,0,1,.87-.65,3.26,3.26,0,0,1,1.24-.24,3.5,3.5,0,0,1,1.34.21,2.44,2.44,0,0,1,1,.65l-.41.58a2.31,2.31,0,0,0-.84-.58,2.92,2.92,0,0,0-1.08-.17,2.43,2.43,0,0,0-.77.12,1.31,1.31,0,0,0-.59.36,1,1,0,0,0-.22.67.78.78,0,0,0,.19.54,1.41,1.41,0,0,0,.53.32c.24.08.53.17.87.26a13.29,13.29,0,0,1,1.31.39,2.16,2.16,0,0,1,.86.51,1.27,1.27,0,0,1,.32.91,1.68,1.68,0,0,1-.66,1.43A3.05,3.05,0,0,1,223.86,235.92Z" />
          <path
             id="path184"
             d="M229.93,235.81a4.37,4.37,0,0,1-1.5-.24,3.23,3.23,0,0,1-1.21-.78l.34-.61a3.75,3.75,0,0,0,1.13.72,3,3,0,0,0,1.19.21,2.3,2.3,0,0,0,1.24-.32,1,1,0,0,0,.46-.89.75.75,0,0,0-.24-.59,1.8,1.8,0,0,0-.68-.33l-1-.26a7.66,7.66,0,0,1-1.14-.37,1.66,1.66,0,0,1-.7-.51,1.41,1.41,0,0,1-.25-.83,1.66,1.66,0,0,1,.3-1.06,2,2,0,0,1,.87-.65,3.26,3.26,0,0,1,1.24-.25,3.49,3.49,0,0,1,1.34.22,2.44,2.44,0,0,1,1,.65l-.41.58a2.26,2.26,0,0,0-.85-.58,2.83,2.83,0,0,0-1.07-.17,2.43,2.43,0,0,0-.77.12,1.23,1.23,0,0,0-.59.36,1,1,0,0,0-.22.67.82.82,0,0,0,.19.54,1.28,1.28,0,0,0,.53.31q.36.13.87.27c.5.12.93.25,1.31.38a2.06,2.06,0,0,1,.86.52,1.26,1.26,0,0,1,.32.9,1.67,1.67,0,0,1-.67,1.44A3,3,0,0,1,229.93,235.81Z" />
        </g>
        <text
           id="text192"
           transform="translate(471.49 297.85) rotate(-1.06)"
           class="cls-37">Hs
                    <tspan
   id="tspan188"
   y="0"
   x="31.53"
   class="cls-44">p</tspan><tspan
   id="tspan190"
   y="0"
   x="47.31">A</tspan></text>
      </g>
      <g
         data-name="Layer 8"
         id="Layer_8">
        <path
           id="path195"
           d="M400.07,416.83,410,447c1.16,3.52-1.4,7.53-5.72,9l-9.45,3.13c-4.33,1.43-8.77-.27-9.94-3.78L375,425.21"
           class="cls-45" />
        <path
           id="path197"
           d="M375,425.21l-9.79-29.58c-1.16-3.51,1.4-7.53,5.72-9l9.46-3.12c4.32-1.43,8.77.26,9.93,3.78l9.76,29.5"
           class="cls-46" />
        <path
           id="path199"
           d="M394.48,418.92l7.85,23.75c.92,2.77-.09,5.59-2.25,6.31l-4.73,1.56c-2.16.71-4.65-1-5.57-3.72L382,423.14"
           class="cls-47" />
        <path
           id="path201"
           d="M382,423.14l-7.7-23.29c-.92-2.77.09-5.59,2.25-6.31l4.73-1.56c2.16-.72,4.65.95,5.57,3.72l7.68,23.22"
           class="cls-48" />
        <ellipse
           id="ellipse203"
           transform="translate(-115.01 140.04) rotate(-18.3)"
           ry="13.72"
           rx="10.96"
           cy="427.01"
           cx="377.19"
           class="cls-12" />
        <ellipse
           id="ellipse205"
           transform="translate(-111.72 146.36) rotate(-18.3)"
           ry="13.72"
           rx="10.96"
           cy="419.97"
           cx="398.46"
           class="cls-12" />
      </g>
      <g
         data-name="Layer 9"
         id="Layer_9">
        <line
           id="line208"
           y2="494.52"
           x2="413.35"
           y1="461.88"
           x1="400.88"
           class="cls-25" />
        <polygon
           id="polygon210"
           points="402 488.31 412.83 493.15 417.67 482.31 420.22 488.97 415.38 499.8 404.54 494.96 402 488.31"
           class="cls-3" />
      </g>
    </g>
  </g>
</svg>
