<svg id="Capa_1" data-name="Capa 1" xmlns="http://www.w3.org/2000/svg" viewBox="0 0 64.21 81.13"><defs><style>.cls-1{fill:#fff;}.cls-2{opacity:0.35;}.cls-3{fill:#4cc1be;}.cls-4{fill:#1b676b;}.cls-5{fill:#113f41;}.cls-6{fill:#479891;}.cls-7{fill:#4ab288;}</style></defs><path class="cls-1" d="M32.51,0c1.09,0,28,32.06,28,45.87s-12.5,25-27.93,25S4.6,59.68,4.6,45.87,32.51,0,32.51,0H0V81.13H64.21V0Z" transform="translate(0 0)"/><g class="cls-2"><path class="cls-3" d="M60.46,45.87c0,13.81-12.5,25-27.93,25S4.6,59.68,4.6,45.87,32.51,0,32.51,0C33.6,0,60.46,32.06,60.46,45.87Z" transform="translate(0 0)"/></g><rect class="cls-4" x="7.58" y="33.71" width="1.32" height="9.73" transform="translate(-26.13 19.22) rotate(-48.56)"/><rect class="cls-4" x="55.22" y="38.89" width="9.3" height="1.32" transform="translate(-11.79 35.92) rotate(-30.55)"/><rect class="cls-4" x="25.74" y="67.39" width="1.32" height="12.41"/><rect class="cls-4" x="39.13" y="67.39" width="1.32" height="12.41"/><rect class="cls-3" x="23.91" y="79.23" width="3.56" height="1.9" rx="0.95"/><rect class="cls-3" x="38.56" y="79.23" width="3.56" height="1.9" rx="0.95"/><circle class="cls-4" cx="22.84" cy="38.91" r="3.56"/><circle class="cls-1" cx="23.57" cy="37.64" r="1.66"/><circle class="cls-4" cx="43.35" cy="38.78" r="3.56"/><circle class="cls-1" cx="43.89" cy="37.64" r="1.66"/><path class="cls-5" d="M33.92,45.41a6.21,6.21,0,0,1-4-1.53.66.66,0,0,1-.05-.93.65.65,0,0,1,.92,0h0a4.45,4.45,0,0,0,6,0,.67.67,0,0,1,.94.06.66.66,0,0,1-.06.93A5.52,5.52,0,0,1,33.92,45.41Z" transform="translate(0 0)"/><path class="cls-6" d="M30.67,59.53a7.34,7.34,0,0,0,5.85-3.43c2.31-3.48,10.1-.09,7.06,5.74S33.44,67,31.22,66.28c-1.51-.49-5.35-2.37-5-6.32v-.12A1.51,1.51,0,0,1,28,58.75a1.14,1.14,0,0,1,.26.09A8.84,8.84,0,0,0,30.67,59.53Z" transform="translate(0 0)"/><path class="cls-7" d="M36.48,65.26a1,1,0,0,1,.17-1.85c.94-.28,3.53-1.38,4.18-3a1,1,0,1,1,1.9.75c-1.16,2.92-5.32,4.19-5.5,4.24A1,1,0,0,1,36.48,65.26Z" transform="translate(0 0)"/></svg>