<?xml version="1.0" encoding="utf-8"?>
<!-- Generator: Adobe Illustrator 25.0.0, SVG Export Plug-In . SVG Version: 6.00 Build 0)  -->
<svg version="1.1" id="Capa_1" xmlns="http://www.w3.org/2000/svg" xmlns:xlink="http://www.w3.org/1999/xlink" x="0px" y="0px"
	 viewBox="0 0 64.2 81.1" style="enable-background:new 0 0 64.2 81.1;" xml:space="preserve">
<style type="text/css">
	.st0{opacity:0.35;}
	.st1{fill:#4CC1BE;}
	.st2{fill:#1B676B;}
	.st3{fill:#FFFFFF;}
	.st4{fill:#113F41;}
	.st5{fill:#479891;}
	.st6{fill:#4AB288;}
</style>
<g class="st0">
	<path class="st1" d="M60.5,45.9c0,13.8-12.5,25-27.9,25s-28-11.2-28-25S32.5,0,32.5,0C33.6,0,60.5,32.1,60.5,45.9z"/>
</g>
<circle class="st2" cx="22.8" cy="38.9" r="3.6"/>
<circle class="st3" cx="23.6" cy="37.6" r="1.7"/>
<circle class="st2" cx="43.3" cy="38.8" r="3.6"/>
<circle class="st3" cx="43.9" cy="37.6" r="1.7"/>
<path class="st4" d="M33.9,45.4c-1.5,0-2.9-0.6-4-1.5c-0.3-0.2-0.3-0.7,0-0.9c0.3-0.3,0.7-0.3,0.9,0l0,0l0,0c1.7,1.6,4.3,1.6,6,0
	c0.3-0.2,0.7-0.2,0.9,0.1s0.2,0.7-0.1,0.9C36.6,44.9,35.3,45.4,33.9,45.4z"/>
<path class="st5" d="M30.7,59.5c2.4-0.1,4.6-1.4,5.9-3.4c2.3-3.5,10.1-0.1,7.1,5.7S33.4,67,31.2,66.3c-1.5-0.5-5.4-2.4-5-6.3v-0.1
	c0.2-0.8,1-1.3,1.8-1.1c0.1,0,0.2,0,0.3,0.1C29,59.2,29.8,59.4,30.7,59.5z"/>
<path class="st6" d="M36.5,65.3C36,65,35.8,64.4,36,63.9c0.1-0.2,0.3-0.4,0.6-0.5c0.9-0.3,3.5-1.4,4.2-3c0.2-0.5,0.8-0.8,1.3-0.6
	s0.8,0.8,0.6,1.3c-1.2,2.9-5.3,4.2-5.5,4.2C37,65.5,36.7,65.4,36.5,65.3z"/>
</svg>
