<?xml version="1.0" encoding="UTF-8"?>
<svg xmlns="http://www.w3.org/2000/svg"  width="2397pt" height="500pt" viewBox="0 0 2397 500" version="1.1">
<g id="surface1">
<path style=" stroke:none;fill-rule:nonzero;fill:rgb(96.078431%,70.588235%,0%);fill-opacity:1;" d="M 75.261719 247.507812 C 65.433594 247.265625 57.574219 239.265625 57.507812 229.433594 C 57.445312 219.605469 65.195312 211.496094 75.019531 211.125 C 79.859375 211.042969 84.535156 212.886719 88.015625 216.253906 C 93.292969 221.382812 94.964844 229.1875 92.246094 236.027344 C 89.527344 242.871094 82.960938 247.402344 75.597656 247.507812 Z M 75.261719 216.273438 L 75.074219 216.273438 C 68.378906 216.988281 63.3125 222.660156 63.355469 229.394531 C 63.402344 236.125 68.539062 241.730469 75.242188 242.359375 L 75.449219 242.359375 C 82.144531 241.640625 87.207031 235.964844 87.15625 229.230469 C 87.109375 222.496094 81.96875 216.894531 75.261719 216.273438 Z M 75.261719 216.273438 "/>
<path style=" stroke:none;fill-rule:nonzero;fill:rgb(29.803922%,75.686275%,74.509804%);fill-opacity:1;" d="M 268.96875 316.480469 C 245.148438 346.347656 200.75 350.542969 169.71875 325.84375 C 138.6875 301.140625 132.957031 256.871094 156.816406 227.003906 C 180.675781 197.136719 304.960938 174.402344 304.960938 174.402344 C 306.816406 176.03125 292.769531 286.515625 268.96875 316.480469 Z M 268.96875 316.480469 "/>
<path style=" stroke:none;fill-rule:nonzero;fill:rgb(63.921569%,85.490196%,29.411765%);fill-opacity:1;" d="M 144.195312 150.167969 C 144.195312 150.167969 140.710938 119.550781 108.109375 103.707031 C 75.503906 87.863281 95.769531 16.984375 149.308594 36.515625 C 202.847656 56.046875 205.300781 117.773438 201.589844 137.753906 C 199.101562 151.234375 187.304688 186.441406 153.015625 188.316406 C 152.652344 188.363281 152.289062 188.363281 151.929688 188.316406 C 149.175781 187.847656 137.902344 185.054688 140.691406 171.609375 C 144.195312 156.199219 144.4375 153.875 144.195312 150.167969 Z M 144.195312 150.167969 "/>
<path style=" stroke:none;fill-rule:nonzero;fill:rgb(63.921569%,85.490196%,29.411765%);fill-opacity:1;" d="M 111.160156 348.652344 C 100.140625 353.261719 87.570312 352.226562 77.453125 345.878906 C 59.53125 335.132812 31.722656 367.226562 58.035156 386.949219 C 84.34375 406.667969 114.886719 388.390625 123.371094 380.300781 C 128.988281 374.851562 142.339844 358.070312 132.433594 340.972656 C 132.324219 340.800781 132.199219 340.636719 132.058594 340.488281 C 130.652344 338.742188 128.539062 337.71875 126.300781 337.695312 C 124.058594 337.675781 121.925781 338.65625 120.488281 340.375 C 114.042969 346.722656 113.035156 347.601562 111.160156 348.652344 Z M 111.160156 348.652344 "/>
<path style=" stroke:none;fill-rule:nonzero;fill:rgb(74.901961%,92.156863%,80.784314%);fill-opacity:1;" d="M 273.707031 99.664062 C 273.707031 103.160156 270.875 105.992188 267.378906 105.992188 C 263.882812 105.992188 261.046875 103.160156 261.046875 99.664062 C 261.046875 96.167969 263.882812 93.332031 267.378906 93.332031 C 270.875 93.332031 273.707031 96.167969 273.707031 99.664062 Z M 273.707031 99.664062 "/>
<path style=" stroke:none;fill-rule:nonzero;fill:rgb(74.901961%,92.156863%,80.784314%);fill-opacity:1;" d="M 218.539062 388.820312 C 217.582031 396.574219 216.667969 403.445312 216.105469 410.148438 C 215.507812 416.566406 215.398438 423.023438 215.785156 429.457031 C 215.796875 431.023438 215.925781 432.589844 216.179688 434.136719 L 216.722656 438.800781 C 217.433594 441.855469 217.789062 445.054688 218.78125 448.164062 C 219.117188 449.796875 219.542969 451.410156 220.054688 452.996094 C 220.617188 454.589844 221.125 456.234375 221.628906 457.921875 C 222.601562 461.347656 224.15625 464.550781 225.128906 468.519531 C 223.371094 467.691406 221.671875 466.75 220.039062 465.691406 C 218.335938 464.71875 216.753906 463.542969 215.335938 462.191406 C 213.933594 460.863281 212.546875 459.457031 211.199219 457.996094 C 210.859375 457.621094 210.503906 457.265625 210.1875 456.890625 L 209.34375 455.675781 C 208.78125 454.851562 208.21875 454.046875 207.695312 453.183594 C 205.5 449.800781 203.746094 446.148438 202.472656 442.320312 C 201.324219 438.4375 200.605469 434.4375 200.335938 430.394531 C 199.859375 422.410156 201.238281 414.421875 204.363281 407.058594 C 207.316406 399.789062 212.222656 393.480469 218.539062 388.820312 Z M 218.539062 388.820312 "/>
<path style=" stroke:none;fill-rule:nonzero;fill:rgb(96.078431%,70.588235%,0%);fill-opacity:1;" d="M 385.65625 95.375 C 385.65625 114.351562 370.269531 129.738281 351.292969 129.738281 C 332.3125 129.738281 316.929688 114.351562 316.929688 95.375 C 316.929688 76.394531 332.3125 61.011719 351.292969 61.011719 C 370.269531 61.011719 385.65625 76.394531 385.65625 95.375 Z M 385.65625 95.375 "/>
<path style=" stroke:none;fill-rule:nonzero;fill:rgb(70.980392%,89.803922%,35.294118%);fill-opacity:1;" d="M 337.714844 281.3125 C 333.492188 281.3125 329.691406 278.738281 328.128906 274.8125 C 326.566406 270.886719 327.550781 266.40625 330.617188 263.5 C 337.828125 256.648438 356.121094 235 354.457031 217.117188 C 353.9375 211.429688 358.132812 206.398438 363.820312 205.878906 C 369.507812 205.363281 374.539062 209.554688 375.054688 215.242188 C 377.996094 246.835938 346.214844 277.265625 344.867188 278.539062 C 342.929688 280.351562 340.367188 281.34375 337.714844 281.3125 Z M 337.714844 281.3125 "/>
<path style=" stroke:none;fill-rule:nonzero;fill:rgb(19.215686%,54.901961%,35.294118%);fill-opacity:1;" d="M 278.671875 366.292969 C 279.324219 366.292969 279.960938 366.292969 280.542969 366.292969 C 282.09375 366.308594 283.640625 366.445312 285.167969 366.703125 C 316.8125 372.34375 343.910156 392.652344 358.203125 421.441406 C 358.558594 422.171875 358.949219 422.882812 359.363281 423.578125 C 374.699219 450.148438 414.511719 439.230469 415.824219 408.59375 C 416.097656 404.425781 415.769531 400.238281 414.847656 396.160156 C 404.867188 356.234375 361.890625 332.492188 318.855469 343.351562 C 303.582031 347.097656 289.664062 355.046875 278.671875 366.292969 Z M 278.671875 366.292969 "/>
<path style=" stroke:none;fill-rule:nonzero;fill:rgb(96.078431%,70.588235%,0%);fill-opacity:1;" d="M 594.773438 -14.832031 C 594.089844 -19.511719 595.273438 -24.273438 598.070312 -28.089844 C 600.902344 -32.003906 605.183594 -34.621094 609.960938 -35.355469 C 614.757812 -36.15625 619.675781 -34.980469 623.59375 -32.097656 C 627.507812 -29.269531 630.121094 -24.996094 630.859375 -20.226562 C 631.613281 -15.457031 630.441406 -10.589844 627.601562 -6.683594 C 624.746094 -2.75 620.425781 -0.125 615.617188 0.597656 C 605.691406 2.148438 596.386719 -4.628906 594.8125 -14.550781 C 594.792969 -14.644531 594.792969 -14.738281 594.773438 -14.832031 Z M 625.710938 -19.214844 C 625.703125 -19.28125 625.703125 -19.351562 625.710938 -19.417969 C 624.550781 -26.539062 617.855469 -31.386719 610.730469 -30.261719 C 603.710938 -29.121094 598.882812 -22.589844 599.847656 -15.542969 C 599.847656 -15.542969 599.847656 -15.429688 599.847656 -15.355469 C 601 -8.226562 607.699219 -3.371094 614.832031 -4.496094 C 621.847656 -5.636719 626.675781 -12.167969 625.710938 -19.214844 Z M 625.710938 -19.214844 "/>
<path style=" stroke:none;fill-rule:nonzero;fill:rgb(29.803922%,75.686275%,74.509804%);fill-opacity:1;" d="M 553.914062 186.667969 C 520.972656 167.304688 510.5625 123.933594 530.636719 89.886719 C 550.710938 55.84375 593.632812 43.652344 626.589844 63.015625 C 659.550781 82.378906 699.625 202.246094 699.625 202.246094 C 698.21875 204.324219 586.835938 205.992188 553.914062 186.667969 Z M 553.914062 186.667969 "/>
<path style=" stroke:none;fill-rule:nonzero;fill:rgb(63.921569%,85.490196%,29.411765%);fill-opacity:1;" d="M 700.878906 39.683594 C 700.878906 39.683594 730.710938 31.835938 741.777344 -2.621094 C 752.84375 -37.078125 825.839844 -27.097656 814.117188 28.746094 C 802.394531 84.589844 741.570312 95.65625 721.289062 94.8125 C 707.601562 94.25 671.105469 87.546875 664.4375 53.839844 C 664.359375 53.488281 664.328125 53.128906 664.34375 52.773438 C 664.34375 49.980469 665.597656 38.410156 679.324219 39.382812 C 694.886719 40.46875 697.226562 40.429688 700.878906 39.683594 Z M 700.878906 39.683594 "/>
<path style=" stroke:none;fill-rule:nonzero;fill:rgb(63.921569%,85.490196%,29.411765%);fill-opacity:1;" d="M 499.71875 34.980469 C 493.570312 24.707031 492.816406 12.078125 497.695312 1.140625 C 505.804688 -18.128906 470.035156 -41.199219 454.289062 -12.285156 C 438.539062 16.628906 460.898438 44.195312 470.09375 51.386719 C 476.292969 56.292969 494.773438 67.042969 510.335938 54.8125 C 510.503906 54.683594 510.65625 54.53125 510.785156 54.363281 C 512.308594 52.726562 513.023438 50.492188 512.730469 48.273438 C 512.4375 46.058594 511.167969 44.085938 509.269531 42.902344 C 502.039062 37.585938 501.027344 36.683594 499.71875 34.980469 Z M 499.71875 34.980469 "/>
<path style=" stroke:none;fill-rule:nonzero;fill:rgb(74.901961%,92.156863%,80.784314%);fill-opacity:1;" d="M 774.585938 154.496094 C 774.585938 157.988281 771.753906 160.824219 768.257812 160.824219 C 764.761719 160.824219 761.925781 157.988281 761.925781 154.496094 C 761.925781 151 764.761719 148.164062 768.257812 148.164062 C 771.753906 148.164062 774.585938 151 774.585938 154.496094 Z M 774.585938 154.496094 "/>
<path style=" stroke:none;fill-rule:nonzero;fill:rgb(74.901961%,92.156863%,80.784314%);fill-opacity:1;" d="M 475.128906 146.964844 C 467.320312 147.117188 460.375 147.191406 453.652344 147.566406 C 447.199219 147.882812 440.785156 148.6875 434.457031 149.980469 C 432.90625 150.207031 431.378906 150.558594 429.886719 151.03125 L 425.335938 152.226562 C 422.414062 153.371094 419.289062 154.101562 416.347656 155.582031 C 414.789062 156.125 413.257812 156.75 411.757812 157.453125 C 410.261719 158.214844 408.707031 158.964844 407.097656 159.699219 C 403.855469 161.160156 400.898438 163.144531 397.097656 164.664062 C 397.671875 162.808594 398.375 160.992188 399.195312 159.230469 C 399.914062 157.410156 400.851562 155.679688 401.984375 154.082031 C 403.109375 152.492188 404.304688 150.917969 405.5625 149.382812 C 405.878906 149.007812 406.179688 148.59375 406.515625 148.238281 L 407.601562 147.226562 C 408.332031 146.574219 409.0625 145.878906 409.832031 145.242188 C 412.886719 142.601562 416.265625 140.363281 419.886719 138.578125 C 423.5625 136.894531 427.421875 135.636719 431.386719 134.832031 C 439.222656 133.210938 447.328125 133.449219 455.054688 135.523438 C 462.675781 137.410156 469.625 141.371094 475.128906 146.964844 Z M 475.128906 146.964844 "/>
<path style=" stroke:none;fill-rule:nonzero;fill:rgb(96.078431%,70.588235%,0%);fill-opacity:1;" d="M 792.507812 238.800781 C 792.507812 257.78125 777.125 273.164062 758.144531 273.164062 C 739.167969 273.164062 723.78125 257.78125 723.78125 238.800781 C 723.78125 219.824219 739.167969 204.4375 758.144531 204.4375 C 777.125 204.4375 792.507812 219.824219 792.507812 238.800781 Z M 792.507812 238.800781 "/>
<path style=" stroke:none;fill-rule:nonzero;fill:rgb(70.980392%,89.803922%,35.294118%);fill-opacity:1;" d="M 598.386719 249.773438 C 597.785156 245.589844 599.796875 241.464844 603.460938 239.359375 C 607.128906 237.253906 611.707031 237.597656 615.019531 240.226562 C 622.808594 246.386719 646.851562 261.441406 664.304688 257.265625 C 669.847656 255.941406 675.417969 259.363281 676.742188 264.90625 C 678.0625 270.449219 674.644531 276.015625 669.101562 277.339844 C 638.257812 284.699219 603.558594 257.546875 602.171875 256.386719 C 600.113281 254.746094 598.757812 252.382812 598.386719 249.773438 Z M 598.386719 249.773438 "/>
<path style=" stroke:none;fill-rule:nonzero;fill:rgb(19.215686%,54.901961%,35.294118%);fill-opacity:1;" d="M 505.917969 203.316406 C 506.027344 203.96875 506.121094 204.589844 506.214844 205.1875 C 506.417969 206.734375 506.5 208.292969 506.460938 209.851562 C 505.351562 241.980469 489.054688 271.675781 462.546875 289.867188 C 461.871094 290.335938 461.214844 290.804688 460.578125 291.3125 C 436.460938 310.261719 452.882812 348.128906 483.425781 345.09375 C 487.585938 344.777344 491.679688 343.863281 495.578125 342.378906 C 533.707031 326.855469 551.085938 280.898438 534.363281 239.886719 C 528.472656 225.285156 518.621094 212.617188 505.917969 203.316406 Z M 505.917969 203.316406 "/>
<path style=" stroke:none;fill-rule:nonzero;fill:rgb(96.078431%,70.588235%,0%);fill-opacity:1;" d="M 567.769531 513.425781 C 557.941406 513.183594 550.082031 505.183594 550.019531 495.351562 C 549.953125 485.523438 557.703125 477.414062 567.527344 477.042969 C 572.347656 476.972656 577 478.820312 580.46875 482.171875 C 585.746094 487.300781 587.417969 495.105469 584.699219 501.945312 C 581.980469 508.789062 575.410156 513.316406 568.050781 513.425781 Z M 567.769531 482.191406 L 567.582031 482.191406 C 560.886719 482.90625 555.824219 488.578125 555.867188 495.308594 C 555.910156 502.042969 561.046875 507.648438 567.75 508.277344 L 567.957031 508.277344 C 574.652344 507.558594 579.714844 501.882812 579.667969 495.148438 C 579.617188 488.414062 574.476562 482.8125 567.769531 482.191406 Z M 567.769531 482.191406 "/>
<path style=" stroke:none;fill-rule:nonzero;fill:rgb(29.803922%,75.686275%,74.509804%);fill-opacity:1;" d="M 761.476562 582.398438 C 737.65625 612.265625 693.257812 616.460938 662.226562 591.761719 C 631.199219 567.058594 625.449219 522.847656 649.269531 492.976562 C 673.089844 463.109375 797.414062 440.375 797.414062 440.375 C 799.324219 441.949219 785.28125 552.433594 761.476562 582.398438 Z M 761.476562 582.398438 "/>
<path style=" stroke:none;fill-rule:nonzero;fill:rgb(63.921569%,85.490196%,29.411765%);fill-opacity:1;" d="M 636.703125 416.085938 C 636.703125 416.085938 633.21875 385.46875 600.617188 369.625 C 568.015625 353.78125 588.277344 282.902344 641.816406 302.433594 C 695.355469 321.964844 697.808594 383.6875 694.101562 403.671875 C 691.609375 417.152344 679.8125 452.359375 645.523438 454.230469 C 645.164062 454.277344 644.796875 454.277344 644.4375 454.230469 C 641.683594 453.765625 630.410156 450.972656 633.292969 437.527344 C 636.703125 422.117188 636.945312 419.792969 636.703125 416.085938 Z M 636.703125 416.085938 "/>
<path style=" stroke:none;fill-rule:nonzero;fill:rgb(74.901961%,92.156863%,80.784314%);fill-opacity:1;" d="M 766.214844 365.582031 C 766.214844 369.078125 763.382812 371.910156 759.886719 371.910156 C 756.390625 371.910156 753.558594 369.078125 753.558594 365.582031 C 753.558594 362.085938 756.390625 359.25 759.886719 359.25 C 763.382812 359.25 766.214844 362.085938 766.214844 365.582031 Z M 766.214844 365.582031 "/>
<path style=" stroke:none;fill-rule:nonzero;fill:rgb(96.078431%,70.588235%,0%);fill-opacity:1;" d="M 876.289062 387.507812 C 876.289062 406.488281 860.90625 421.871094 841.925781 421.871094 C 822.949219 421.871094 807.5625 406.488281 807.5625 387.507812 C 807.5625 368.53125 822.949219 353.144531 841.925781 353.144531 C 860.90625 353.144531 876.289062 368.53125 876.289062 387.507812 Z M 876.289062 387.507812 "/>
<path style=" stroke:none;fill-rule:nonzero;fill:rgb(70.980392%,89.803922%,35.294118%);fill-opacity:1;" d="M 830.222656 547.226562 C 826 547.230469 822.199219 544.652344 820.636719 540.730469 C 819.074219 536.804688 820.058594 532.324219 823.125 529.417969 C 830.335938 522.566406 848.632812 500.917969 846.964844 483.035156 C 846.449219 477.34375 850.640625 472.316406 856.328125 471.796875 C 862.015625 471.28125 867.046875 475.472656 867.5625 481.160156 C 870.503906 512.753906 838.726562 543.183594 837.378906 544.457031 C 835.4375 546.265625 832.875 547.261719 830.222656 547.226562 Z M 830.222656 547.226562 "/>
<path style=" stroke:none;fill-rule:nonzero;fill:rgb(29.803922%,75.686275%,74.509804%);fill-opacity:1;" d="M 1211.328125 596.273438 C 1195.203125 630.898438 1153.03125 645.394531 1117.132812 628.671875 C 1081.234375 611.949219 1065.1875 570.316406 1081.308594 535.710938 C 1097.433594 501.105469 1212.957031 449.757812 1212.957031 449.757812 C 1215.148438 450.9375 1227.453125 561.648438 1211.328125 596.273438 Z M 1211.328125 596.273438 "/>
<path style=" stroke:none;fill-rule:nonzero;fill:rgb(63.921569%,85.490196%,29.411765%);fill-opacity:1;" d="M 1052.433594 436.683594 C 1052.433594 436.683594 1048.949219 406.066406 1016.347656 390.226562 C 983.742188 374.382812 1004.007812 303.5 1057.546875 323.035156 C 1111.085938 342.566406 1113.539062 404.289062 1109.828125 424.269531 C 1107.339844 437.753906 1095.542969 472.957031 1061.253906 474.832031 C 1060.890625 474.878906 1060.527344 474.878906 1060.167969 474.832031 C 1057.414062 474.363281 1046.140625 471.574219 1049.023438 458.128906 C 1052.433594 442.714844 1052.675781 440.394531 1052.433594 436.683594 Z M 1052.433594 436.683594 "/>
<path style=" stroke:none;fill-rule:nonzero;fill:rgb(74.901961%,92.156863%,80.784314%);fill-opacity:1;" d="M 1200.671875 389.925781 C 1200.671875 393.421875 1197.839844 396.253906 1194.34375 396.253906 C 1190.847656 396.253906 1188.011719 393.421875 1188.011719 389.925781 C 1188.011719 386.429688 1190.847656 383.59375 1194.34375 383.59375 C 1197.839844 383.59375 1200.671875 386.429688 1200.671875 389.925781 Z M 1200.671875 389.925781 "/>
<path style=" stroke:none;fill-rule:nonzero;fill:rgb(96.078431%,70.588235%,0%);fill-opacity:1;" d="M 1310.746094 411.855469 C 1310.746094 430.832031 1295.363281 446.21875 1276.382812 446.21875 C 1257.40625 446.21875 1242.019531 430.832031 1242.019531 411.855469 C 1242.019531 392.875 1257.40625 377.492188 1276.382812 377.492188 C 1295.363281 377.492188 1310.746094 392.875 1310.746094 411.855469 Z M 1310.746094 411.855469 "/>
<path style=" stroke:none;fill-rule:nonzero;fill:rgb(70.980392%,89.803922%,35.294118%);fill-opacity:1;" d="M 1318.988281 541.609375 C 1314.761719 541.609375 1310.964844 539.035156 1309.402344 535.113281 C 1307.835938 531.1875 1308.824219 526.707031 1311.890625 523.800781 C 1319.097656 516.949219 1337.394531 495.300781 1335.726562 477.414062 C 1335.210938 471.726562 1339.402344 466.695312 1345.089844 466.179688 C 1350.78125 465.664062 1355.808594 469.855469 1356.328125 475.542969 C 1359.265625 507.136719 1327.488281 537.566406 1326.140625 538.839844 C 1324.203125 540.648438 1321.640625 541.640625 1318.988281 541.609375 Z M 1318.988281 541.609375 "/>
<path style=" stroke:none;fill-rule:nonzero;fill:rgb(96.078431%,70.588235%,0%);fill-opacity:1;" d="M 1542.28125 169.664062 C 1542.203125 179.523438 1534.167969 187.464844 1524.308594 187.425781 C 1514.449219 187.386719 1506.476562 179.382812 1506.476562 169.523438 C 1506.476562 159.664062 1514.449219 151.660156 1524.308594 151.621094 C 1534.167969 151.582031 1542.203125 159.523438 1542.28125 169.382812 C 1542.292969 169.476562 1542.292969 169.570312 1542.28125 169.664062 Z M 1511.101562 167.789062 C 1511.113281 167.859375 1511.113281 167.929688 1511.101562 167.996094 C 1511.457031 174.710938 1516.828125 180.066406 1523.542969 180.402344 C 1530.257812 180.734375 1536.136719 175.933594 1537.152344 169.289062 C 1537.160156 169.226562 1537.160156 169.164062 1537.152344 169.101562 C 1536.804688 162.386719 1531.433594 157.019531 1524.71875 156.683594 C 1518.003906 156.34375 1512.121094 161.144531 1511.101562 167.789062 Z M 1511.101562 167.789062 "/>
<path style=" stroke:none;fill-rule:nonzero;fill:rgb(29.803922%,75.686275%,74.509804%);fill-opacity:1;" d="M 1622.074219 -19.8125 C 1650.539062 5.636719 1652.207031 50.226562 1625.820312 79.738281 C 1599.4375 109.25 1554.902344 112.546875 1526.441406 87.078125 C 1497.976562 61.609375 1482.320312 -63.820312 1482.320312 -63.820312 C 1484.078125 -65.542969 1593.628906 -45.28125 1622.074219 -19.8125 Z M 1622.074219 -19.8125 "/>
<path style=" stroke:none;fill-rule:nonzero;fill:rgb(63.921569%,85.490196%,29.411765%);fill-opacity:1;" d="M 1449.003906 95.316406 C 1449.003906 95.316406 1418.238281 97.042969 1400.558594 128.707031 C 1382.882812 160.375 1313.292969 136.199219 1335.839844 83.765625 C 1358.386719 31.328125 1420.109375 32.472656 1439.867188 37.304688 C 1453.179688 40.46875 1487.636719 54.308594 1487.542969 88.59375 C 1487.53125 88.960938 1487.484375 89.324219 1487.414062 89.683594 C 1486.777344 92.398438 1483.351562 103.5 1470.089844 99.851562 C 1455.054688 95.710938 1452.730469 95.28125 1449.003906 95.316406 Z M 1449.003906 95.316406 "/>
<path style=" stroke:none;fill-rule:nonzero;fill:rgb(63.921569%,85.490196%,29.411765%);fill-opacity:1;" d="M 1645.296875 139.570312 C 1649.304688 150.859375 1647.546875 163.390625 1640.597656 173.144531 C 1628.855469 190.429688 1659.324219 219.960938 1680.523438 194.867188 C 1701.71875 169.773438 1685.164062 138.183594 1677.582031 129.324219 C 1672.46875 123.296875 1656.476562 109.121094 1638.800781 118.089844 C 1638.613281 118.183594 1638.4375 118.296875 1638.273438 118.425781 C 1636.449219 119.730469 1635.308594 121.785156 1635.160156 124.023438 C 1635.011719 126.261719 1635.871094 128.445312 1637.507812 129.980469 C 1643.535156 136.554688 1644.34375 137.640625 1645.296875 139.570312 Z M 1645.296875 139.570312 "/>
<path style=" stroke:none;fill-rule:nonzero;fill:rgb(74.901961%,92.156863%,80.784314%);fill-opacity:1;" d="M 1691.496094 34.644531 C 1699.171875 36.03125 1705.988281 37.320312 1712.65625 38.277344 C 1719.027344 39.242188 1725.464844 39.714844 1731.90625 39.683594 C 1733.46875 39.765625 1735.035156 39.730469 1736.589844 39.570312 L 1741.289062 39.269531 C 1744.378906 38.746094 1747.601562 38.578125 1750.765625 37.753906 C 1752.410156 37.511719 1754.042969 37.179688 1755.652344 36.761719 C 1757.261719 36.292969 1758.949219 35.878906 1760.671875 35.46875 C 1764.136719 34.683594 1767.433594 33.316406 1771.4375 32.585938 C 1770.507812 34.273438 1769.46875 35.898438 1768.332031 37.453125 C 1767.257812 39.089844 1766 40.597656 1764.585938 41.949219 C 1763.160156 43.257812 1761.703125 44.570312 1760.164062 45.84375 L 1759.003906 46.777344 L 1757.730469 47.546875 C 1756.886719 48.050781 1756.046875 48.578125 1755.164062 49.0625 C 1751.628906 51.058594 1747.851562 52.597656 1743.929688 53.652344 C 1739.992188 54.589844 1735.957031 55.074219 1731.90625 55.09375 C 1723.898438 55.136719 1715.992188 53.308594 1708.816406 49.757812 C 1701.765625 46.40625 1695.769531 41.175781 1691.496094 34.644531 Z M 1691.496094 34.644531 "/>
<path style=" stroke:none;fill-rule:nonzero;fill:rgb(96.078431%,70.588235%,0%);fill-opacity:1;" d="M 121.910156 491.796875 C 121.910156 510.777344 106.523438 526.160156 87.546875 526.160156 C 68.570312 526.160156 53.183594 510.777344 53.183594 491.796875 C 53.183594 472.820312 68.570312 457.433594 87.546875 457.433594 C 106.523438 457.433594 121.910156 472.820312 121.910156 491.796875 Z M 121.910156 491.796875 "/>
<path style=" stroke:none;fill-rule:nonzero;fill:rgb(96.078431%,70.588235%,0%);fill-opacity:1;" d="M 1799.097656 396.648438 C 1807.949219 392.644531 1818.375 396.550781 1822.414062 405.390625 C 1826.453125 414.226562 1822.582031 424.664062 1813.761719 428.738281 C 1804.9375 432.808594 1794.484375 428.980469 1790.378906 420.171875 C 1786.273438 411.367188 1790.0625 400.898438 1798.855469 396.761719 Z M 1812.898438 424.738281 L 1813.066406 424.644531 C 1818.734375 421.035156 1820.753906 413.722656 1817.742188 407.714844 C 1814.734375 401.707031 1807.667969 398.949219 1801.382812 401.328125 L 1801.214844 401.328125 C 1795.496094 404.917969 1793.441406 412.265625 1796.460938 418.300781 C 1799.484375 424.339844 1806.601562 427.09375 1812.898438 424.664062 Z M 1812.898438 424.738281 "/>
<path style=" stroke:none;fill-rule:nonzero;fill:rgb(29.803922%,75.686275%,74.509804%);fill-opacity:1;" d="M 1594.886719 420.410156 C 1603.050781 383.109375 1641.046875 359.71875 1679.734375 368.183594 C 1718.425781 376.648438 1743.179688 413.859375 1735.015625 451.066406 C 1726.851562 488.277344 1625.351562 563.671875 1625.351562 563.671875 C 1622.957031 563.070312 1586.738281 457.714844 1594.886719 420.410156 Z M 1594.886719 420.410156 "/>
<path style=" stroke:none;fill-rule:nonzero;fill:rgb(63.921569%,85.490196%,29.411765%);fill-opacity:1;" d="M 1900.128906 486.328125 C 1900.128906 486.328125 1916.792969 512.265625 1953.050781 512.078125 C 1989.304688 511.890625 2002.429688 584.402344 1945.707031 590.582031 C 1888.984375 596.761719 1859.566406 542.433594 1854.0625 522.882812 C 1850.316406 509.683594 1845.390625 472.921875 1875.335938 456.105469 C 1875.648438 455.921875 1875.980469 455.777344 1876.328125 455.675781 C 1879.003906 454.886719 1890.351562 452.414062 1893.703125 465.75 C 1897.507812 480.898438 1898.273438 483.144531 1900.128906 486.328125 Z M 1900.128906 486.328125 "/>
<path style=" stroke:none;fill-rule:nonzero;fill:rgb(63.921569%,85.490196%,29.411765%);fill-opacity:1;" d="M 1722.226562 321.777344 C 1730.078125 312.734375 1741.847656 308.085938 1753.761719 309.324219 C 1774.605469 311.046875 1785.351562 270 1753.03125 263.894531 C 1720.707031 257.789062 1701.402344 287.734375 1697.375 298.726562 C 1694.640625 306.21875 1690.164062 327.058594 1706.625 338.050781 C 1706.800781 338.167969 1706.992188 338.261719 1707.1875 338.332031 C 1709.222656 339.277344 1711.570312 339.261719 1713.589844 338.289062 C 1715.609375 337.316406 1717.085938 335.492188 1717.617188 333.316406 C 1720.484375 324.773438 1720.972656 323.539062 1722.226562 321.777344 Z M 1722.226562 321.777344 "/>
<path style=" stroke:none;fill-rule:nonzero;fill:rgb(74.901961%,92.156863%,80.784314%);fill-opacity:1;" d="M 1608.144531 333.183594 C 1605.578125 325.824219 1603.347656 319.25 1600.914062 312.976562 C 1598.605469 306.960938 1595.84375 301.125 1592.65625 295.523438 C 1591.953125 294.125 1591.148438 292.777344 1590.242188 291.5 L 1587.675781 287.546875 C 1585.691406 285.132812 1583.929688 282.398438 1581.703125 280.054688 C 1580.578125 278.875 1579.679688 277.378906 1578.425781 276.3125 C 1577.167969 275.242188 1576.046875 273.894531 1574.847656 272.566406 C 1572.449219 269.945312 1569.621094 267.753906 1567.019531 264.605469 C 1568.960938 264.574219 1570.898438 264.675781 1572.824219 264.90625 C 1574.800781 265.019531 1576.753906 265.359375 1578.648438 265.917969 C 1580.523438 266.515625 1582.394531 267.152344 1584.265625 267.789062 C 1584.714844 267.976562 1585.203125 268.128906 1585.652344 268.332031 L 1586.945312 269.0625 C 1587.804688 269.550781 1588.6875 270.019531 1589.53125 270.5625 C 1592.988281 272.65625 1596.167969 275.171875 1599.003906 278.050781 C 1601.761719 281.019531 1604.167969 284.292969 1606.175781 287.808594 C 1610.152344 294.753906 1612.445312 302.535156 1612.882812 310.523438 C 1613.433594 318.371094 1611.792969 326.214844 1608.144531 333.183594 Z M 1608.144531 333.183594 "/>
<path style=" stroke:none;fill-rule:nonzero;fill:rgb(70.980392%,89.803922%,35.294118%);fill-opacity:1;" d="M 1548.6875 482.304688 C 1552.472656 480.441406 1557.011719 481.074219 1560.144531 483.898438 C 1563.277344 486.722656 1564.378906 491.171875 1562.917969 495.132812 C 1559.472656 504.496094 1552.636719 531.964844 1562.039062 547.285156 C 1564.828125 552.125 1563.257812 558.3125 1558.496094 561.234375 C 1553.730469 564.15625 1547.507812 562.753906 1544.453125 558.070312 C 1527.863281 531.046875 1542.917969 489.699219 1543.574219 487.957031 C 1544.492188 485.488281 1546.320312 483.464844 1548.6875 482.304688 Z M 1548.6875 482.304688 "/>
<path style=" stroke:none;fill-rule:nonzero;fill:rgb(19.215686%,54.901961%,35.294118%);fill-opacity:1;" d="M 1564.15625 379.960938 C 1563.574219 380.28125 1563.011719 380.582031 1562.449219 380.84375 C 1561.050781 381.523438 1559.597656 382.089844 1558.105469 382.527344 C 1527.230469 391.445312 1493.957031 385.195312 1468.425781 365.675781 C 1467.769531 365.167969 1467.113281 364.699219 1466.441406 364.25 C 1440.933594 347.210938 1410.109375 374.53125 1422.414062 402.621094 C 1424.015625 406.480469 1426.160156 410.09375 1428.78125 413.351562 C 1455.371094 444.757812 1504.378906 447.058594 1538.238281 418.316406 C 1550.273438 408.1875 1559.25 394.90625 1564.15625 379.960938 Z M 1564.15625 379.960938 "/>
<path style=" stroke:none;fill-rule:nonzero;fill:rgb(96.078431%,70.588235%,0%);fill-opacity:1;" d="M 2141.792969 117.621094 C 2150.648438 113.617188 2161.070312 117.523438 2165.109375 126.363281 C 2169.148438 135.199219 2165.277344 145.640625 2156.457031 149.710938 C 2147.636719 153.78125 2137.179688 149.953125 2133.078125 141.148438 C 2128.972656 132.339844 2132.761719 121.871094 2141.550781 117.734375 Z M 2155.597656 145.710938 L 2155.765625 145.710938 C 2161.429688 142.101562 2163.449219 134.789062 2160.4375 128.78125 C 2157.429688 122.777344 2150.363281 120.019531 2144.078125 122.398438 L 2143.910156 122.398438 C 2138.191406 125.988281 2136.136719 133.332031 2139.160156 139.371094 C 2142.183594 145.40625 2149.296875 148.160156 2155.597656 145.730469 Z M 2155.597656 145.710938 "/>
<path style=" stroke:none;fill-rule:nonzero;fill:rgb(29.803922%,75.686275%,74.509804%);fill-opacity:1;" d="M 1937.582031 141.386719 C 1945.746094 104.082031 1983.742188 80.691406 2022.429688 89.15625 C 2061.121094 97.621094 2085.875 134.832031 2077.710938 172.042969 C 2069.546875 209.25 1968.050781 284.644531 1968.050781 284.644531 C 1965.652344 284.046875 1929.433594 178.6875 1937.582031 141.386719 Z M 1937.582031 141.386719 "/>
<path style=" stroke:none;fill-rule:nonzero;fill:rgb(63.921569%,85.490196%,29.411765%);fill-opacity:1;" d="M 2122.972656 235.394531 C 2122.972656 235.394531 2139.640625 261.328125 2175.894531 261.140625 C 2212.148438 260.953125 2225.277344 333.464844 2168.554688 339.644531 C 2111.832031 345.824219 2082.414062 291.5 2076.90625 271.949219 C 2073.160156 258.746094 2068.238281 221.984375 2098.179688 205.167969 C 2098.492188 204.988281 2098.828125 204.84375 2099.171875 204.738281 C 2101.851562 203.953125 2113.199219 201.480469 2116.550781 214.8125 C 2120.351562 229.960938 2121.121094 232.210938 2122.972656 235.394531 Z M 2122.972656 235.394531 "/>
<path style=" stroke:none;fill-rule:nonzero;fill:rgb(63.921569%,85.490196%,29.411765%);fill-opacity:1;" d="M 2064.921875 42.753906 C 2072.773438 33.707031 2084.542969 29.058594 2096.457031 30.300781 C 2117.300781 32.023438 2128.050781 -9.027344 2095.726562 -15.132812 C 2063.40625 -21.234375 2044.097656 8.707031 2040.070312 19.699219 C 2037.335938 27.191406 2032.863281 48.035156 2049.324219 59.027344 C 2049.496094 59.140625 2049.6875 59.238281 2049.882812 59.308594 C 2051.917969 60.25 2054.265625 60.234375 2056.285156 59.261719 C 2058.304688 58.289062 2059.785156 56.464844 2060.316406 54.289062 C 2063.179688 45.75 2063.667969 44.511719 2064.921875 42.753906 Z M 2064.921875 42.753906 "/>
<path style=" stroke:none;fill-rule:nonzero;fill:rgb(74.901961%,92.156863%,80.784314%);fill-opacity:1;" d="M 2041.121094 335.132812 C 2041.121094 338.625 2038.285156 341.460938 2034.789062 341.460938 C 2031.296875 341.460938 2028.460938 338.625 2028.460938 335.132812 C 2028.460938 331.636719 2031.296875 328.800781 2034.789062 328.800781 C 2038.285156 328.800781 2041.121094 331.636719 2041.121094 335.132812 Z M 2041.121094 335.132812 "/>
<path style=" stroke:none;fill-rule:nonzero;fill:rgb(74.901961%,92.156863%,80.784314%);fill-opacity:1;" d="M 1950.839844 54.15625 C 1948.273438 46.796875 1946.046875 40.226562 1943.609375 33.953125 C 1941.300781 27.933594 1938.539062 22.101562 1935.351562 16.5 C 1934.652344 15.097656 1933.84375 13.75 1932.9375 12.472656 L 1930.371094 8.519531 C 1928.386719 6.105469 1926.625 3.371094 1924.398438 1.03125 C 1923.273438 -0.148438 1922.375 -1.648438 1921.121094 -2.714844 C 1919.867188 -3.78125 1918.742188 -5.132812 1917.542969 -6.460938 C 1915.148438 -9.082031 1912.320312 -11.273438 1909.714844 -14.417969 C 1911.65625 -14.449219 1913.59375 -14.351562 1915.519531 -14.121094 C 1917.496094 -14.007812 1919.449219 -13.667969 1921.34375 -13.109375 C 1923.21875 -12.507812 1925.089844 -11.871094 1926.964844 -11.234375 C 1927.414062 -11.046875 1927.898438 -10.898438 1928.347656 -10.691406 L 1929.640625 -9.960938 C 1930.503906 -9.476562 1931.382812 -9.007812 1932.226562 -8.464844 C 1935.683594 -6.371094 1938.867188 -3.855469 1941.699219 -0.972656 C 1944.457031 1.992188 1946.863281 5.265625 1948.875 8.78125 C 1952.847656 15.730469 1955.144531 23.507812 1955.578125 31.5 C 1956.128906 39.34375 1954.488281 47.1875 1950.839844 54.15625 Z M 1950.839844 54.15625 "/>
<path style=" stroke:none;fill-rule:nonzero;fill:rgb(96.078431%,70.588235%,0%);fill-opacity:1;" d="M 1985.878906 351.722656 C 1985.878906 370.699219 1970.492188 386.085938 1951.515625 386.085938 C 1932.535156 386.085938 1917.152344 370.699219 1917.152344 351.722656 C 1917.152344 332.746094 1932.535156 317.359375 1951.515625 317.359375 C 1970.492188 317.359375 1985.878906 332.746094 1985.878906 351.722656 Z M 1985.878906 351.722656 "/>
<path style=" stroke:none;fill-rule:nonzero;fill:rgb(70.980392%,89.803922%,35.294118%);fill-opacity:1;" d="M 1891.382812 203.277344 C 1895.167969 201.417969 1899.707031 202.050781 1902.839844 204.875 C 1905.976562 207.699219 1907.074219 212.144531 1905.613281 216.105469 C 1902.167969 225.46875 1895.335938 252.941406 1904.734375 268.257812 C 1907.527344 273.101562 1905.953125 279.285156 1901.191406 282.207031 C 1896.425781 285.128906 1890.203125 283.726562 1887.152344 279.046875 C 1870.558594 252.023438 1885.613281 210.675781 1886.269531 208.933594 C 1887.1875 206.460938 1889.015625 204.4375 1891.382812 203.277344 Z M 1891.382812 203.277344 "/>
<path style=" stroke:none;fill-rule:nonzero;fill:rgb(19.215686%,54.901961%,35.294118%);fill-opacity:1;" d="M 1906.851562 100.9375 C 1906.269531 101.253906 1905.707031 101.554688 1905.148438 101.816406 C 1903.75 102.5 1902.296875 103.0625 1900.800781 103.5 C 1869.925781 112.421875 1836.652344 106.167969 1811.121094 86.648438 C 1810.464844 86.140625 1809.808594 85.675781 1809.136719 85.226562 C 1783.628906 68.183594 1752.804688 95.503906 1765.109375 123.59375 C 1766.714844 127.457031 1768.855469 131.070312 1771.476562 134.324219 C 1798.066406 165.730469 1847.074219 168.035156 1880.933594 139.289062 C 1892.96875 129.160156 1901.945312 115.882812 1906.851562 100.9375 Z M 1906.851562 100.9375 "/>
<path style=" stroke:none;fill-rule:nonzero;fill:rgb(96.078431%,70.588235%,0%);fill-opacity:1;" d="M 2241.570312 377.601562 C 2241.640625 367.8125 2249.617188 359.925781 2259.40625 359.960938 C 2269.195312 360 2277.113281 367.945312 2277.113281 377.734375 C 2277.113281 387.523438 2269.195312 395.46875 2259.40625 395.503906 C 2249.617188 395.542969 2241.640625 387.652344 2241.570312 377.863281 Z M 2272.804688 377.078125 C 2272.804688 377.078125 2272.804688 376.964844 2272.804688 376.890625 C 2271.949219 370.234375 2266.203125 365.300781 2259.492188 365.460938 C 2252.785156 365.617188 2247.277344 370.820312 2246.738281 377.507812 L 2246.738281 377.714844 C 2247.554688 384.414062 2253.324219 389.398438 2260.070312 389.230469 C 2266.816406 389.066406 2272.335938 383.808594 2272.824219 377.078125 Z M 2272.804688 377.078125 "/>
<path style=" stroke:none;fill-rule:nonzero;fill:rgb(29.803922%,75.686275%,74.509804%);fill-opacity:1;" d="M 2155.222656 604.25 C 2124.960938 580.953125 2120.015625 536.628906 2144.191406 505.242188 C 2168.367188 473.859375 2212.488281 467.320312 2242.730469 490.617188 C 2272.972656 513.914062 2297.75 637.863281 2297.75 637.863281 C 2296.195312 639.757812 2185.390625 627.566406 2155.222656 604.25 Z M 2155.222656 604.25 "/>
<path style=" stroke:none;fill-rule:nonzero;fill:rgb(63.921569%,85.490196%,29.411765%);fill-opacity:1;" d="M 2334.339844 433.652344 C 2334.339844 433.652344 2364.902344 429.664062 2380.203125 396.777344 C 2395.5 363.894531 2466.679688 382.996094 2448.066406 436.929688 C 2429.453125 490.863281 2367.769531 494.269531 2347.710938 490.917969 C 2334.191406 488.652344 2298.835938 477.433594 2296.402344 443.183594 C 2296.363281 442.824219 2296.363281 442.457031 2296.402344 442.097656 C 2296.832031 439.34375 2299.433594 428.015625 2312.917969 430.675781 C 2328.292969 433.6875 2330.632812 433.953125 2334.339844 433.652344 Z M 2334.339844 433.652344 "/>
<path style=" stroke:none;fill-rule:nonzero;fill:rgb(63.921569%,85.490196%,29.411765%);fill-opacity:1;" d="M 2120.351562 447.023438 C 2115.527344 436.050781 2116.351562 423.417969 2122.5625 413.164062 C 2133.011719 395.074219 2100.445312 367.808594 2081.15625 394.4375 C 2061.871094 421.066406 2080.691406 451.3125 2088.910156 459.664062 C 2094.527344 465.28125 2111.382812 478.257812 2128.40625 468.050781 C 2128.59375 467.957031 2128.761719 467.828125 2128.910156 467.679688 C 2130.640625 466.253906 2131.644531 464.132812 2131.644531 461.890625 C 2131.644531 459.652344 2130.640625 457.527344 2128.910156 456.105469 C 2122.320312 449.867188 2121.4375 448.859375 2120.351562 447.023438 Z M 2120.351562 447.023438 "/>
<path style=" stroke:none;fill-rule:nonzero;fill:rgb(96.078431%,70.588235%,0%);fill-opacity:1;" d="M 1180.542969 264.4375 C 1188.960938 270.140625 1191.1875 281.582031 1185.511719 290.023438 C 1179.839844 298.46875 1168.40625 300.730469 1159.945312 295.089844 C 1151.480469 289.449219 1149.175781 278.023438 1154.785156 269.539062 C 1160.398438 261.058594 1171.8125 258.707031 1180.316406 264.289062 Z M 1162.65625 290.054688 L 1162.808594 290.167969 C 1168.707031 293.410156 1176.105469 291.652344 1179.917969 286.101562 C 1183.730469 280.554688 1182.722656 273.019531 1177.582031 268.671875 L 1177.433594 268.558594 C 1171.53125 265.316406 1164.132812 267.074219 1160.320312 272.625 C 1156.507812 278.171875 1157.519531 285.707031 1162.65625 290.054688 Z M 1162.65625 290.054688 "/>
<path style=" stroke:none;fill-rule:nonzero;fill:rgb(29.803922%,75.686275%,74.509804%);fill-opacity:1;" d="M 1021.871094 126.722656 C 1049.960938 100.804688 1094.457031 103.371094 1121.328125 132.453125 C 1148.199219 161.535156 1147.28125 206.125 1119.230469 232.058594 C 1091.179688 257.996094 964.847656 261.683594 964.847656 261.683594 C 963.257812 259.773438 993.835938 152.640625 1021.871094 126.722656 Z M 1021.871094 126.722656 "/>
<path style=" stroke:none;fill-rule:nonzero;fill:rgb(63.921569%,85.490196%,29.411765%);fill-opacity:1;" d="M 914.753906 203.726562 C 914.753906 203.726562 900.074219 230.824219 917.769531 262.492188 C 935.464844 294.15625 878.277344 340.65625 845.484375 294.007812 C 812.695312 247.359375 846.046875 195.335938 860.46875 181.066406 C 870.222656 171.421875 900.015625 149.230469 929.210938 167.433594 C 929.523438 167.628906 929.8125 167.851562 930.074219 168.109375 C 932.039062 169.980469 939.699219 178.820312 929.644531 188.183594 C 918.257812 198.800781 916.683594 200.542969 914.753906 203.726562 Z M 914.753906 203.726562 "/>
<path style=" stroke:none;fill-rule:nonzero;fill:rgb(63.921569%,85.490196%,29.411765%);fill-opacity:1;" d="M 1208.96875 161.046875 C 1220.660156 163.546875 1230.40625 171.582031 1235.089844 182.585938 C 1243.648438 201.648438 1284.828125 191.234375 1274.53125 160 C 1264.230469 128.765625 1228.726562 126.292969 1217.152344 128.164062 C 1209.34375 129.363281 1188.855469 135.542969 1187.1875 155.261719 C 1187.160156 155.472656 1187.160156 155.6875 1187.1875 155.898438 C 1187.351562 158.117188 1188.488281 160.152344 1190.300781 161.445312 C 1192.109375 162.742188 1194.398438 163.164062 1196.550781 162.601562 C 1205.484375 160.898438 1206.832031 160.769531 1208.96875 161.046875 Z M 1208.96875 161.046875 "/>
<path style=" stroke:none;fill-rule:nonzero;fill:rgb(74.901961%,92.156863%,80.784314%);fill-opacity:1;" d="M 939.101562 363.800781 C 939.101562 367.296875 936.265625 370.132812 932.769531 370.132812 C 929.273438 370.132812 926.441406 367.296875 926.441406 363.800781 C 926.441406 360.304688 929.273438 357.472656 932.769531 357.472656 C 936.265625 357.472656 939.101562 360.304688 939.101562 363.800781 Z M 939.101562 363.800781 "/>
<path style=" stroke:none;fill-rule:nonzero;fill:rgb(74.901961%,92.156863%,80.784314%);fill-opacity:1;" d="M 1143.894531 66.589844 C 1149.097656 60.785156 1153.78125 55.65625 1158.089844 50.488281 C 1162.222656 45.558594 1165.976562 40.324219 1169.324219 34.832031 C 1170.210938 33.539062 1171 32.179688 1171.683594 30.769531 L 1173.894531 26.628906 C 1175.054688 23.707031 1176.609375 20.878906 1177.636719 17.773438 C 1178.125 16.21875 1178.988281 14.71875 1179.34375 13.070312 C 1179.699219 11.421875 1180.316406 9.8125 1180.878906 8.144531 C 1182.019531 4.773438 1182.582031 1.253906 1184.0625 -2.546875 C 1185.03125 -0.863281 1185.890625 0.882812 1186.628906 2.679688 C 1187.46875 4.46875 1188.097656 6.355469 1188.5 8.296875 C 1188.875 10.167969 1189.230469 12.136719 1189.492188 14.121094 C 1189.492188 14.605469 1189.640625 15.09375 1189.679688 15.597656 L 1189.679688 17.078125 C 1189.679688 18.050781 1189.679688 19.0625 1189.679688 20.054688 C 1189.558594 24.082031 1188.929688 28.078125 1187.808594 31.949219 C 1186.53125 35.789062 1184.828125 39.476562 1182.730469 42.941406 C 1178.554688 49.773438 1172.851562 55.539062 1166.066406 59.792969 C 1159.445312 64.066406 1151.769531 66.417969 1143.894531 66.589844 Z M 1143.894531 66.589844 "/>
<path style=" stroke:none;fill-rule:nonzero;fill:rgb(96.078431%,70.588235%,0%);fill-opacity:1;" d="M 1491.046875 235.207031 C 1491.046875 254.183594 1475.660156 269.570312 1456.683594 269.570312 C 1437.703125 269.570312 1422.320312 254.183594 1422.320312 235.207031 C 1422.320312 216.226562 1437.703125 200.84375 1456.683594 200.84375 C 1475.660156 200.84375 1491.046875 216.226562 1491.046875 235.207031 Z M 1491.046875 235.207031 "/>
<path style=" stroke:none;fill-rule:nonzero;fill:rgb(70.980392%,89.803922%,35.294118%);fill-opacity:1;" d="M 986.496094 73.464844 C 990.003906 75.867188 991.679688 80.175781 990.714844 84.320312 C 989.75 88.460938 986.34375 91.585938 982.132812 92.191406 C 972.300781 93.671875 944.90625 100.972656 936.046875 116.535156 C 933.164062 121.339844 926.976562 122.964844 922.105469 120.199219 C 917.234375 117.433594 915.460938 111.285156 918.105469 106.347656 C 933.761719 78.765625 977.226562 72.003906 979.082031 71.722656 C 981.683594 71.324219 984.34375 71.949219 986.496094 73.464844 Z M 986.496094 73.464844 "/>
<path style=" stroke:none;fill-rule:nonzero;fill:rgb(19.215686%,54.901961%,35.294118%);fill-opacity:1;" d="M 1042.359375 45.039062 L 1040.746094 43.96875 C 1039.484375 43.066406 1038.296875 42.0625 1037.1875 40.972656 C 1014.460938 18.25 1003.867188 -13.910156 1008.632812 -45.691406 C 1008.742188 -46.492188 1008.835938 -47.296875 1008.914062 -48.109375 C 1011.515625 -78.6875 972.621094 -92.492188 954.007812 -68.109375 C 951.402344 -64.84375 949.277344 -61.222656 947.695312 -57.359375 C 933.03125 -18.894531 954.753906 25.039062 996.195312 40.878906 C 1010.894531 46.554688 1026.886719 47.992188 1042.359375 45.039062 Z M 1042.359375 45.039062 "/>
<path style=" stroke:none;fill-rule:nonzero;fill:rgb(29.803922%,75.686275%,74.509804%);fill-opacity:1;" d="M 2357.863281 -3.445312 C 2384.433594 -30.878906 2429.023438 -30.785156 2457.488281 -3.238281 C 2485.953125 24.308594 2487.449219 68.875 2460.933594 96.3125 C 2434.414062 123.746094 2308.40625 134.476562 2308.40625 134.476562 C 2306.71875 132.640625 2331.308594 23.988281 2357.863281 -3.445312 Z M 2357.863281 -3.445312 "/>
<path style=" stroke:none;fill-rule:nonzero;fill:rgb(74.901961%,92.156863%,80.784314%);fill-opacity:1;" d="M 2344.976562 212.472656 C 2344.976562 215.96875 2342.144531 218.800781 2338.648438 218.800781 C 2335.152344 218.800781 2332.320312 215.96875 2332.320312 212.472656 C 2332.320312 208.976562 2335.152344 206.140625 2338.648438 206.140625 C 2342.144531 206.140625 2344.976562 208.976562 2344.976562 212.472656 Z M 2344.976562 212.472656 "/>
<path style=" stroke:none;fill-rule:nonzero;fill:rgb(96.078431%,70.588235%,0%);fill-opacity:1;" d="M 2293.460938 182.773438 C 2293.460938 201.75 2278.074219 217.136719 2259.097656 217.136719 C 2240.121094 217.136719 2224.734375 201.75 2224.734375 182.773438 C 2224.734375 163.792969 2240.121094 148.410156 2259.097656 148.410156 C 2278.074219 148.410156 2293.460938 163.792969 2293.460938 182.773438 Z M 2293.460938 182.773438 "/>
<path style=" stroke:none;fill-rule:nonzero;fill:rgb(70.980392%,89.803922%,35.294118%);fill-opacity:1;" d="M 2286.0625 24.925781 C 2290.269531 25.328125 2293.800781 28.257812 2294.984375 32.3125 C 2296.164062 36.371094 2294.75 40.734375 2291.417969 43.332031 C 2283.59375 49.4375 2263.328125 69.25 2263.328125 87.210938 C 2263 92.65625 2258.488281 96.90625 2253.03125 96.90625 C 2247.574219 96.90625 2243.058594 92.65625 2242.730469 87.210938 C 2242.730469 55.488281 2277.375 28.257812 2278.855469 27.097656 C 2280.894531 25.488281 2283.472656 24.710938 2286.0625 24.925781 Z M 2286.0625 24.925781 "/>
<path style=" stroke:none;fill-rule:nonzero;fill:rgb(70.980392%,89.803922%,35.294118%);fill-opacity:1;" d="M 293.632812 555.335938 C 289.371094 555.378906 285.519531 552.792969 283.945312 548.835938 C 282.371094 544.875 283.390625 540.351562 286.515625 537.453125 C 293.707031 530.617188 312.003906 508.953125 310.335938 491.066406 C 309.820312 485.378906 314.011719 480.347656 319.699219 479.832031 C 325.386719 479.3125 330.417969 483.507812 330.9375 489.195312 C 333.875 520.769531 302.097656 551.199219 300.75 552.492188 C 298.828125 554.316406 296.28125 555.335938 293.632812 555.335938 Z M 293.632812 555.335938 "/>
<path style=" stroke:none;fill-rule:nonzero;fill:rgb(74.901961%,92.156863%,80.784314%);fill-opacity:1;" d="M 1351.496094 284.007812 C 1351.496094 288.796875 1347.613281 292.679688 1342.824219 292.679688 C 1338.035156 292.679688 1334.15625 288.796875 1334.15625 284.007812 C 1334.15625 279.21875 1338.035156 275.335938 1342.824219 275.335938 C 1347.613281 275.335938 1351.496094 279.21875 1351.496094 284.007812 Z M 1351.496094 284.007812 "/>
</g>
</svg>
