<?xml version="1.0" encoding="UTF-8"?><svg xmlns="http://www.w3.org/2000/svg" xmlns:xlink="http://www.w3.org/1999/xlink" width="3600" zoomAndPan="magnify" viewBox="0 0 3600 1079.999946" height="1079.999946" preserveAspectRatio="xMidYMid meet" version="1.0"><rect x="-360" width="4320" fill="rgb(100%, 100%, 100%)" y="-107.999995" height="1295.999935" fill-opacity="1"/><rect x="-360" width="4320" fill="rgb(100%, 100%, 100%)" y="-107.999995" height="1295.999935" fill-opacity="1"/><rect x="-360" width="4320" fill="rgb(100%, 100%, 100%)" y="-107.999995" height="1295.999935" fill-opacity="1"/><path fill="rgb(90.19928%, 95.689392%, 84.309387%)" d="M 1386.332031 994.222656 L 3294.117188 994.222656 L 3294.117188 85.976562 L 3212.746094 85.976562 L 3212.746094 912.875 L 1211.390625 912.875 L 1211.390625 994.222656 Z M 1386.332031 994.222656 " fill-opacity="1" fill-rule="nonzero"/><path fill="rgb(90.19928%, 95.689392%, 84.309387%)" d="M 3294.128906 413.96875 L 3294.128906 85.765625 L 2790.878906 85.765625 L 2790.878906 167.179688 L 3212.710938 167.179688 L 3212.710938 589.011719 L 3294.128906 589.011719 Z M 3294.128906 413.96875 " fill-opacity="1" fill-rule="nonzero"/><path fill="rgb(90.19928%, 95.689392%, 84.309387%)" d="M 549.570312 85.765625 L 221.367188 85.765625 L 221.367188 994.011719 L 302.785156 994.011719 L 302.785156 167.113281 L 724.613281 167.113281 L 724.613281 85.765625 Z M 549.570312 85.765625 " fill-opacity="1" fill-rule="nonzero"/><path fill="rgb(90.19928%, 95.689392%, 84.309387%)" d="M 221.367188 666.03125 L 221.367188 994.234375 L 1211.359375 994.234375 L 1211.359375 912.816406 L 302.738281 912.816406 L 302.738281 490.984375 L 221.367188 490.984375 Z M 221.367188 666.03125 " fill-opacity="1" fill-rule="nonzero"/></svg>