<svg xmlns="http://www.w3.org/2000/svg" viewBox="0 0 525.1 522.46"><defs><style>.cls-1,.cls-10{isolation:isolate;}.cls-2{fill:#318c5a;}.cls-3{fill:#e6f4d7;stroke:#c7e08c;stroke-width:15px;}.cls-10,.cls-3,.cls-8,.cls-9{stroke-linecap:round;stroke-linejoin:round;}.cls-4{fill:#2e302e;}.cls-5{font-size:19.84px;}.cls-15,.cls-18,.cls-27,.cls-31,.cls-37,.cls-39,.cls-5{font-family:Montserrat-Bold, Montserrat;font-weight:700;}.cls-6{letter-spacing:-0.02em;}.cls-7{letter-spacing:0em;}.cls-10,.cls-43,.cls-44,.cls-8{fill:none;}.cls-8{stroke:#d17522;}.cls-45,.cls-47,.cls-9{fill:#b5e55a;}.cls-10,.cls-9{stroke:#318c5a;}.cls-9{stroke-width:6.99px;}.cls-10{stroke-width:5.15px;opacity:0.54;}.cls-11{fill:#4cc1be;}.cls-12,.cls-17{fill:#1b676b;}.cls-13{fill:#4a9b4f;}.cls-14{fill:#c6c6c6;}.cls-15{font-size:24.74px;}.cls-16{letter-spacing:-0.01em;}.cls-17,.cls-38{opacity:0.8;}.cls-18{font-size:12.4px;}.cls-18,.cls-39{fill:#fff;}.cls-19{letter-spacing:0em;}.cls-20{letter-spacing:-0.01em;}.cls-21{letter-spacing:0em;}.cls-22{letter-spacing:-0.01em;}.cls-23{letter-spacing:0em;}.cls-24{letter-spacing:-0.02em;}.cls-25{letter-spacing:-0.02em;}.cls-26{fill:#bfebce;}.cls-27{font-size:20.96px;}.cls-28{letter-spacing:0em;}.cls-29{letter-spacing:0em;}.cls-30{letter-spacing:-0.04em;}.cls-31{font-size:16.87px;}.cls-32{letter-spacing:0.01em;}.cls-33{letter-spacing:-0.01em;}.cls-34{letter-spacing:0em;}.cls-35{letter-spacing:-0.01em;}.cls-36{letter-spacing:-0.02em;}.cls-37{font-size:23.55px;}.cls-39{font-size:17.63px;}.cls-40{letter-spacing:0.01em;}.cls-41{letter-spacing:0em;}.cls-42{letter-spacing:-0.02em;}.cls-43,.cls-44{stroke:#2e302e;stroke-miterlimit:10;}.cls-43{stroke-width:2px;}.cls-44{stroke-width:5px;}.cls-46,.cls-48{fill:#f5b400;}.cls-47,.cls-48{mix-blend-mode:multiply;}</style></defs><g class="cls-1"><g id="Layer_2" data-name="Layer 2"><g id="Layer_5" data-name="Layer 5"><path class="cls-2" d="M394,331.93s-97.78-40.71-120.71-168.19S-1.29,39.91,14.9,243.36C24.75,367,110,465.5,224.55,507.35c110.85,40.49,260.18-.46,298.62-122a18,18,0,0,0,.77-3.78c2.67-29.39,4.29-88.48-37.43-90.81C433.24,287.74,406.06,336.22,394,331.93Z"/><path class="cls-3" d="M388.28,278.9s-95.5-27.77-128.13-140.14S-8.89,52.26,24,233.42,251.89,455.79,317.46,454.93c44.22-.59,162.52-18.95,187.1-127a15.6,15.6,0,0,0,.39-3.48c0-9-2.77-46.4-47.08-44.54C407.51,282,400,281.67,388.28,278.9Z"/></g><g id="noria"><g id="Layer_3" data-name="Layer 3"><path class="cls-4" d="M71.53,152.72a7.43,7.43,0,1,0,7,7.88A7.43,7.43,0,0,0,71.53,152.72Zm-.13,2.12a5.31,5.31,0,1,1-5.63,5A5.32,5.32,0,0,1,71.4,154.84Z"/></g><text class="cls-5" transform="translate(52.01 185.01)">M<tspan class="cls-6" x="18.95" y="0">C</tspan><tspan class="cls-7" x="33.19" y="0">G</tspan></text><path class="cls-4" d="M93.3,202a1.5,1.5,0,0,1,.23-3,26.12,26.12,0,0,0,5.73-.19,1.49,1.49,0,0,1,1.7,1.26,1.51,1.51,0,0,1-1.27,1.71,28.41,28.41,0,0,1-6.39.21Zm-6-1.13a1.3,1.3,0,0,1-.33-.07,28.65,28.65,0,0,1-5.87-2.57,1.51,1.51,0,0,1-.54-2.05,1.49,1.49,0,0,1,2-.54,25.82,25.82,0,0,0,5.25,2.3,1.5,1.5,0,0,1-.56,2.93Zm17.87-.63a1.47,1.47,0,0,1-1.28-.95,1.5,1.5,0,0,1,.85-1.94,25.8,25.8,0,0,0,5.07-2.66,1.5,1.5,0,1,1,1.68,2.48,28.85,28.85,0,0,1-5.66,3A1.51,1.51,0,0,1,105.22,200.26Zm-28.3-5.43a1.53,1.53,0,0,1-.9-.4,28.42,28.42,0,0,1-4.16-4.86,1.5,1.5,0,1,1,2.48-1.68,25.76,25.76,0,0,0,3.73,4.35,1.51,1.51,0,0,1,.07,2.12A1.49,1.49,0,0,1,76.92,194.83Zm38.27-1.33a1.42,1.42,0,0,1-.91-.4,1.5,1.5,0,0,1-.06-2.12,26.08,26.08,0,0,0,3.42-4.59,1.5,1.5,0,0,1,2.59,1.51A28.62,28.62,0,0,1,116.4,193,1.48,1.48,0,0,1,115.19,193.5Zm6.07-10.41a1.91,1.91,0,0,1-.33-.06,1.51,1.51,0,0,1-1-1.88,25.48,25.48,0,0,0,1.08-5.63v-.11a1.5,1.5,0,1,1,3,.24v.11a28.34,28.34,0,0,1-1.2,6.28A1.51,1.51,0,0,1,121.26,183.09Zm.92-12.12a1.51,1.51,0,0,1-1.36-1.28,25.24,25.24,0,0,0-1.48-5.53,1.49,1.49,0,0,1,.84-1.94,1.5,1.5,0,0,1,1.95.84,28.73,28.73,0,0,1,1.66,6.19,1.49,1.49,0,0,1-1.26,1.7A2.06,2.06,0,0,1,122.18,171Zm-4.4-11.22a1.47,1.47,0,0,1-1.12-.65,26.21,26.21,0,0,0-3.74-4.34,1.5,1.5,0,1,1,2-2.2,29.25,29.25,0,0,1,4.18,4.85,1.51,1.51,0,0,1-.4,2.09A1.45,1.45,0,0,1,117.78,159.75Zm-37.62-7.14A1.47,1.47,0,0,1,79,152a1.49,1.49,0,0,1,.39-2.08,28.37,28.37,0,0,1,5.66-3,1.5,1.5,0,0,1,1.94.85,1.48,1.48,0,0,1-.85,1.94,25.81,25.81,0,0,0-5.06,2.68A1.45,1.45,0,0,1,80.16,152.61ZM109,151.55a1.46,1.46,0,0,1-.63-.2,26,26,0,0,0-5.25-2.29,1.5,1.5,0,1,1,.88-2.86,28.08,28.08,0,0,1,5.87,2.56,1.5,1.5,0,0,1-.87,2.79Zm-17.57-3.33A1.51,1.51,0,0,1,90,146.94a1.49,1.49,0,0,1,1.26-1.7,28.5,28.5,0,0,1,6.4-.23h0a1.5,1.5,0,0,1-.23,3,25.41,25.41,0,0,0-5.72.21A2,2,0,0,1,91.38,148.22Z"/></g><g id="Layer_3-2" data-name="Layer 3"><path class="cls-2" d="M428,333.76c-.19.2-.15,1.06-1.43,0s-4.28-7.07-4.28-7.07,2.24,9.23,1.78,9.54-.67,1-1.68-.26-3-8.5-3-8.5c-.38,2.39,1.6,8.48,1.16,9.1s-.71.73-1.67.05-2.61-10.05-2.34-6.14-.33,5.67-.41,5.67.12.76-1.12-.77c-5.29-6.52-2.66-30.27,18.67-38.46s32.81,13.29,36.79,21.43,2.15,24.08-11.13,30.63-23.49,4.69-25.13,4-1.06-1.47-.27-1.86,6.53-2.18,6.53-2.18c-2.21.29-9.7.28-10.53-.69s-.55-1.7,1.38-2.31,10.68-.76,10.68-.76-8.43-1.1-10.65-2.55-.42-2.86,1.17-3,10.6,2.17,10.6,2.17c-4.33-.49-7.12-3.34-8.56-4.77s.74-3.29,2.45-2,8.2,3.19,8.2,3.19.82.06-1.33-2.78-1.38-3.3-.69-4,3.29,1.86,4.45,3.2a9.7,9.7,0,0,0,4.48,2.87c8.8,1.13,9.06-8.12,9.06-8.12-5-33.77-28.15-22.12-32.46-17.93s4.06,10.93,4.26,11.32,1.32,1.88-1.71,3.15-5.8-5-5.8-5C424.18,323.68,428.2,333.55,428,333.76Z"/><path class="cls-8" d="M451.5,317.71c-.62-2.45-6.52-2-8.2-1.19-3.33,1.53,2.42,10.42,2.42,9.17,0-12.57.59-1.86-7.66-3.13-5.22-.81.68-10,5.36-8.66,8.17,2.29-.92,6.19-.64,10.56.31,4.7,6.45,5,9.48,2.78,11.23-8.05-23.52,5.33-13.45-7.52,8.56-10.93,1.47,14.92,10.26,9.69.83-.49-1.91-.32-2.86-.48-12-2.1.92-5.52,2.37-8.55,4.42-9.21-8.56-1.22-4.8-.93,1,.08-7.9-3.17-4.12-5.67,10.39-6.88,12.25,16,14.49,13.39,3.91-4.55.23-9.62-5-6.35-9.88,6.15,9.16-11.79-1-6-4.13,2.35,2.22,15.63-2.27,14.07-6.09-2.11-3.15-20.94-9-13.93-7.85,9.38,19.83,8,11.84,14.85"/><g id="Trans"><path class="cls-9" d="M172.23,305.51l109,30.24a21.62,21.62,0,0,1,15,26.61h0a21.61,21.61,0,0,1-26.6,15l-109-30.24a21.62,21.62,0,0,1-15-26.61h0A21.62,21.62,0,0,1,172.23,305.51Z"/><path class="cls-9" d="M160,319.33l116.28,32.28A21.43,21.43,0,0,1,291.16,378h0a21.43,21.43,0,0,1-26.39,14.92L148.49,360.64a21.44,21.44,0,0,1-14.93-26.39h0A21.44,21.44,0,0,1,160,319.33Z"/><path class="cls-10" d="M160.76,331.51h0a11.13,11.13,0,0,1,7.75,13.71h0A11.13,11.13,0,0,1,154.8,353h0A11.14,11.14,0,0,1,147,339.26h0A11.14,11.14,0,0,1,160.76,331.51Z"/><path class="cls-10" d="M195,341h0a11.13,11.13,0,0,1,7.75,13.71h0A11.14,11.14,0,0,1,189,362.48h0a11.15,11.15,0,0,1-7.76-13.72h0A11.14,11.14,0,0,1,195,341Z"/><path class="cls-10" d="M229.22,350.51h0A11.14,11.14,0,0,1,237,364.23h0A11.14,11.14,0,0,1,223.26,372h0a11.13,11.13,0,0,1-7.75-13.71h0A11.13,11.13,0,0,1,229.22,350.51Z"/><path class="cls-10" d="M263.45,360h0a11.15,11.15,0,0,1,7.76,13.72h0a11.14,11.14,0,0,1-13.72,7.75h0a11.13,11.13,0,0,1-7.75-13.71h0A11.14,11.14,0,0,1,263.45,360Z"/><path class="cls-11" d="M167.33,304.28l114.88,31.88c4.14,1.15,14.08,8.22,14.86,17l-3.55,14.08c-3.83-10.75-6.87-14.53-19.56-18.7l-111.82-31.4c-4.14-1.15-7.87-2-14.19.73l6.38-8.86C157.49,305,163.19,303.13,167.33,304.28Z"/><path class="cls-12" d="M264.94,370.75c-1.05-.29-2.06,0-2.24.64s.54,1.41,1.59,1.7,2.06,0,2.24-.64S266,371.05,264.94,370.75Zm-10.17-11.63c-.53-.15-1,0-1.12.32s.26.7.79.85,1,0,1.12-.32S255.29,359.27,254.77,359.12Z"/><path class="cls-12" d="M252.19,364.69l-21.07-5.84c-2.11-.59-4.12,0-4.48,1.27l-.32,1.17,38.3,10.63,1.61-.41-10.83-12-1.75,0Zm-2.29,12c-.53-.15-1,0-1.12.31s.27.71.8.85,1,0,1.12-.31S250.43,376.79,249.9,376.65Z"/><path class="cls-12" d="M250.24,371.71l-21.06-5.85c-2.12-.59-3.54-2.11-3.19-3.4l.56-2.06,37.86,10.65,1.38,2.06-15.49,4.72-1.52-.87Z"/><path class="cls-12" d="M193.83,351c-1.06-.29-2.06,0-2.24.64s.53,1.41,1.59,1.7,2.06,0,2.24-.64S194.89,351.31,193.83,351Zm-10.18-11.63c-.53-.15-1,0-1.12.32s.27.7.8.85,1,0,1.12-.32S184.18,339.53,183.65,339.38Z"/><path class="cls-12" d="M181.07,345,160,339.11c-2.12-.59-4.12,0-4.48,1.27l-.33,1.17,38.3,10.63,1.62-.41-10.84-12-1.75,0Zm-2.28,12c-.53-.15-1,0-1.12.31s.26.71.79.85,1,0,1.12-.31S179.32,357.05,178.79,356.91Z"/><path class="cls-12" d="M179.13,352l-21.06-5.85c-2.12-.59-3.54-2.11-3.18-3.41l.55-2.06,37.86,10.65,1.38,2.06-15.49,4.75-1.52-.87Z"/></g><rect class="cls-12" x="169.13" y="289.28" width="24.81" height="24.81" transform="translate(-4.99 3.06) rotate(-0.95)"/><rect class="cls-12" x="209.4" y="301.16" width="24.81" height="24.81" rx="9.25" transform="translate(-5.18 3.73) rotate(-0.95)"/><rect class="cls-12" x="248.4" y="312.92" width="24.81" height="24.81" rx="12.4" transform="translate(-5.37 4.38) rotate(-0.95)"/><path class="cls-13" d="M360.51,286.89a2.31,2.31,0,0,1-.88,1.8,2.2,2.2,0,0,0-.2,3.34,1.12,1.12,0,0,0,1,.43,14.45,14.45,0,0,1,1.47.06,2,2,0,0,1,1.83,2,19.7,19.7,0,0,1,0,2.43,2,2,0,0,1-1.89,2,3.77,3.77,0,0,1-.58,0c-1.7,0-2,.3-2.45,2a1.35,1.35,0,0,0,.37,1.34c1.94,2,1.87,2.48,0,4.52-1.76,1.88-2.87,1.83-4.4,0a1.28,1.28,0,0,0-1.66-.32c-.29.13-.58.25-.88.36a1.27,1.27,0,0,0-.89,1.29c0,.42,0,.83,0,1.25a1.92,1.92,0,0,1-1.86,1.91c-.85,0-1.71,0-2.56,0a2.05,2.05,0,0,1-1.92-1.81,4.52,4.52,0,0,1,0-.52c0-2,0-1.75-1.92-2.56a1.12,1.12,0,0,0-1.34.3,12.18,12.18,0,0,1-.89.87,1.93,1.93,0,0,1-2.78,0,20.88,20.88,0,0,1-1.76-1.76,1.91,1.91,0,0,1,.06-2.77l.15-.16c1.53-1.45,1.29-1.38.46-3.36a1,1,0,0,0-1-.6,12,12,0,0,1-1.47-.05,2,2,0,0,1-1.86-2.07c0-.73,0-1.47,0-2.2a2,2,0,0,1,1.9-2.12,3.31,3.31,0,0,1,.44,0c1.82,0,2.09-.25,2.58-2a1.17,1.17,0,0,0-.29-1.22c-.31-.31-.63-.62-.93-.94a1.86,1.86,0,0,1-.09-2.66,19.31,19.31,0,0,1,1.86-1.87,2,2,0,0,1,2.73.05,2,2,0,0,1,.21.2c1.37,1.45,1.36,1.26,3.17.51a1.17,1.17,0,0,0,.78-1.2c0-.42,0-.83,0-1.25a2,2,0,0,1,2-2q1.22,0,2.43,0a1.94,1.94,0,0,1,1.95,2v.29c-.07,2.09.26,1.93,2,2.65a1.14,1.14,0,0,0,1.29-.3c.32-.33.64-.67,1-1a1.86,1.86,0,0,1,2.54,0c.7.62,1.33,1.3,2,2A1.57,1.57,0,0,1,360.51,286.89ZM348.1,301.13a5.44,5.44,0,1,0,0-10.88,5.44,5.44,0,1,0,0,10.88Z"/><path class="cls-13" d="M308.31,339.44a2.32,2.32,0,0,1,.76-1.86l1.35-1.36a1.65,1.65,0,0,0,.39-1.89c-.24-.59-.47-1.18-.72-1.76a1.55,1.55,0,0,0-1.61-1c-.58,0-1.17,0-1.76,0a2.86,2.86,0,0,1-2.93-2.93c0-1.08,0-2.16,0-3.23a2.78,2.78,0,0,1,2.91-2.84c.59,0,1.18,0,1.76,0a1.75,1.75,0,0,0,1.64-1.15c.08-.18.14-.37.22-.55,1.1-2.31.73-2.37-.8-3.9-1.68-1.68-1.68-3.15,0-4.82l1.67-1.66c1.55-1.53,3.08-1.54,4.61,0,.37.36.73.73,1.1,1.08a1.45,1.45,0,0,0,1.62.36c.66-.24,1.32-.51,2-.79a1.74,1.74,0,0,0,1-1.64c0-.59,0-1.18,0-1.77a2.74,2.74,0,0,1,2.74-2.84c1.15-.05,2.3-.06,3.45,0a2.8,2.8,0,0,1,2.79,2.83c0,.63,0,1.27,0,1.91a1.55,1.55,0,0,0,1,1.53c.54.23,1.09.45,1.63.69a1.74,1.74,0,0,0,2.08-.39c.42-.41.83-.84,1.25-1.24a2.75,2.75,0,0,1,4,0c.81.78,1.61,1.57,2.38,2.39a2.71,2.71,0,0,1,0,4c-.42.45-.86.88-1.3,1.3a1.41,1.41,0,0,0-.48,1.26,7.33,7.33,0,0,0,1.25,2.94,1.61,1.61,0,0,0,1.33.51c.61,0,1.22,0,1.84,0a2.67,2.67,0,0,1,2.68,2.58q.08,1.9,0,3.81a2.82,2.82,0,0,1-2.8,2.59c-.63,0-1.27,0-1.91,0a1.48,1.48,0,0,0-1.43.86,17.37,17.37,0,0,0-.87,2.09,1.51,1.51,0,0,0,.45,1.73c.45.42.88.85,1.3,1.3a2.73,2.73,0,0,1,0,3.95c-.78.81-1.58,1.61-2.38,2.39a2.64,2.64,0,0,1-3.66.24,16.26,16.26,0,0,1-1.6-1.51,1.62,1.62,0,0,0-1.87-.42c-.59.24-1.18.47-1.76.74a1.67,1.67,0,0,0-1.06,1.68c0,.57,0,1.13,0,1.69a2.84,2.84,0,0,1-3,2.89q-1.57,0-3.15,0a2.73,2.73,0,0,1-2.87-2.86c0-.59,0-1.18,0-1.76a1.74,1.74,0,0,0-1.18-1.69c-.55-.21-1.09-.45-1.63-.68a1.62,1.62,0,0,0-1.89.36c-.46.44-.89.91-1.36,1.34a2.72,2.72,0,0,1-3.95,0c-.82-.78-1.6-1.58-2.39-2.39A2.65,2.65,0,0,1,308.31,339.44Zm17.75-20.26a7.77,7.77,0,0,0-7.92,7.71,7.87,7.87,0,1,0,7.92-7.71Z"/></g><g id="Layer_6" data-name="Layer 6"><path class="cls-14" d="M.48,62.33,104,61.21s6.42-71.64-51.37-38.38c0,0-3.62-24.49-30.7-22.74S.48,62.33.48,62.33Z"/><text class="cls-15" transform="translate(25.46 48.93)"><tspan class="cls-16">C</tspan><tspan x="17.77" y="0">O2</tspan></text><rect class="cls-17" x="52.02" y="242.8" width="96.92" height="34.58" rx="17.29"/><text class="cls-18" transform="translate(62.85 264.31)"><tspan class="cls-19">A</tspan><tspan class="cls-20" x="9.44" y="0">c</tspan><tspan class="cls-21" x="16.68" y="0">e</tspan><tspan class="cls-22" x="24.51" y="0">t</tspan><tspan x="29.78" y="0">yl</tspan><tspan class="cls-23" x="40.93" y="0">-</tspan><tspan class="cls-24" x="45.77" y="0">C</tspan><tspan class="cls-25" x="54.62" y="0">o</tspan><tspan class="cls-21" x="62.5" y="0">A</tspan></text><path class="cls-12" d="M398.66,329.45a15,15,0,0,1-29.75,3.48c-.91-8,14-30.09,14-30.09C383.46,302.81,397.75,321.42,398.66,329.45Z"/><path class="cls-26" d="M390.41,338.84a22.76,22.76,0,0,0,2.22-3,15.61,15.61,0,0,0,1.48-3.35,13.27,13.27,0,0,0,.38-1.77,13.83,13.83,0,0,0,.12-1.83,18.79,18.79,0,0,0-.48-3.74,9.25,9.25,0,0,1,1.33,3.68,9.54,9.54,0,0,1,.06,2,10.17,10.17,0,0,1-.37,2,10.56,10.56,0,0,1-1.83,3.52A9.74,9.74,0,0,1,390.41,338.84Z"/><text class="cls-27" transform="translate(435.02 449.89) rotate(-0.7)"><tspan class="cls-28">A</tspan><tspan x="15.95" y="0">c</tspan><tspan class="cls-29" x="28.33" y="0">r</tspan><tspan class="cls-30" x="37.28" y="0">b</tspan><tspan x="50.9" y="0">V2</tspan></text><text class="cls-31" transform="translate(135.17 374.85) rotate(15.73)">Buta<tspan class="cls-32" x="42.23" y="0">n</tspan><tspan x="53.99" y="0">ol </tspan><tspan class="cls-33" x="74.89" y="0">P</tspan><tspan class="cls-34" x="86.98" y="0">at</tspan><tspan class="cls-35" x="104.72" y="0">h</tspan><tspan class="cls-36" x="116.21" y="0">w</tspan><tspan class="cls-35" x="131.71" y="0">a</tspan><tspan x="141.95" y="0">y</tspan></text><text class="cls-37" transform="translate(272.02 287.22) rotate(-1.06)">SigB</text><g class="cls-38"><rect class="cls-12" x="351.82" y="358.24" width="96.92" height="34.58" rx="17.29"/></g><text class="cls-39" transform="translate(363.65 382.18) rotate(-1.06)">Buta<tspan class="cls-40" x="44.14" y="0">n</tspan><tspan class="cls-41" x="56.43" y="0">ol</tspan></text><text class="cls-37" transform="translate(435.9 286.59) rotate(-1.06)">Hs<tspan class="cls-42" x="31.53" y="0">p</tspan><tspan x="47.31" y="0">A</tspan></text><path d="M195.2,183a8.86,8.86,0,0,1,.47-3,9.06,9.06,0,0,1,1.5-2.72,7.32,7.32,0,0,1,2.46-2,7.52,7.52,0,0,1,3.35-.78,7,7,0,0,1,3.85.95,6.3,6.3,0,0,1,2.39,2.58l-1.28.83a5,5,0,0,0-1.4-1.73,5.49,5.49,0,0,0-1.77-.9,6.31,6.31,0,0,0-1.86-.25,5.8,5.8,0,0,0-2.65.65,5.93,5.93,0,0,0-1.91,1.64,7.21,7.21,0,0,0-1.15,2.26,7.93,7.93,0,0,0-.35,2.51,7.62,7.62,0,0,0,.52,2.65,7.1,7.1,0,0,0,1.36,2.23,6.49,6.49,0,0,0,2,1.51,5.4,5.4,0,0,0,2.49.54,6.45,6.45,0,0,0,1.93-.37,6,6,0,0,0,1.83-1,4.88,4.88,0,0,0,1.34-1.79l1.38.68a5.26,5.26,0,0,1-1.56,2.15,7.79,7.79,0,0,1-2.39,1.37,8.11,8.11,0,0,1-2.59.49,6.85,6.85,0,0,1-3.17-.68,8.07,8.07,0,0,1-2.52-1.93A9.2,9.2,0,0,1,195.2,183Z"/><path d="M225.11,186.62a4,4,0,0,1-.59,2.23,4.5,4.5,0,0,1-1.68,1.56,4.9,4.9,0,0,1-2.34.6l-7.88.15-.31-16.72,8.05-.15a3.39,3.39,0,0,1,2,.59,4.11,4.11,0,0,1,1.35,1.57,4.81,4.81,0,0,1,.49,2,4.36,4.36,0,0,1-.59,2.32,3.93,3.93,0,0,1-1.74,1.61,4.21,4.21,0,0,1,2.3,1.54A4.42,4.42,0,0,1,225.11,186.62ZM214,175.85l.12,6.16,5.74-.1a2.58,2.58,0,0,0,1.45-.46,3.13,3.13,0,0,0,1-1.17,3.05,3.05,0,0,0,.35-1.51,3.36,3.36,0,0,0-.38-1.53,3,3,0,0,0-1-1.11,2.38,2.38,0,0,0-1.39-.39Zm9.48,10.51a3.36,3.36,0,0,0-.41-1.56,3.2,3.2,0,0,0-1.05-1.14,2.5,2.5,0,0,0-1.47-.42l-6.41.12.12,6.33,6.24-.11a2.79,2.79,0,0,0,1.52-.48,3.31,3.31,0,0,0,1.07-1.19A3,3,0,0,0,223.46,186.36Z"/><path d="M240.79,186.32a4,4,0,0,1-.59,2.24,4.43,4.43,0,0,1-1.68,1.56,4.89,4.89,0,0,1-2.33.6l-7.89.15L228,174.15l8-.15a3.3,3.3,0,0,1,2.05.59,4.11,4.11,0,0,1,1.35,1.57,4.81,4.81,0,0,1,.49,2,4.36,4.36,0,0,1-.59,2.32,3.93,3.93,0,0,1-1.74,1.61,4.18,4.18,0,0,1,2.31,1.54A4.45,4.45,0,0,1,240.79,186.32Zm-11.13-10.77.12,6.17,5.74-.1a2.51,2.51,0,0,0,1.45-.47,3.24,3.24,0,0,0,1.34-2.67,3.28,3.28,0,0,0-.38-1.54,3.06,3.06,0,0,0-1-1.1,2.52,2.52,0,0,0-1.4-.4Zm9.48,10.52a3.36,3.36,0,0,0-.41-1.56,3.26,3.26,0,0,0-1-1.14,2.54,2.54,0,0,0-1.48-.42l-6.41.12.12,6.33,6.24-.12a2.78,2.78,0,0,0,1.52-.47,3.31,3.31,0,0,0,1.07-1.19A3,3,0,0,0,239.14,186.07Z"/><path d="M194.27,250.14l-.16-8.92,3.69-.07a2.26,2.26,0,0,1,1.07.22,2.62,2.62,0,0,1,.85.63,3.08,3.08,0,0,1,.57.89,2.74,2.74,0,0,1,.22,1,3.09,3.09,0,0,1-.3,1.38,2.7,2.7,0,0,1-.88,1.07,2.28,2.28,0,0,1-1.35.42l-2.89.06.06,3.29Zm.81-4.09,2.85-.05a1.49,1.49,0,0,0,.91-.31,1.93,1.93,0,0,0,.59-.76,2.46,2.46,0,0,0,.2-1,2.21,2.21,0,0,0-.27-1,2,2,0,0,0-.68-.72,1.5,1.5,0,0,0-.9-.25L195,242Z"/><path d="M206.59,249.91l-2.49-3.31-1.37,1.33,0,2-.86,0-.17-9.18h.86l.11,6.21,3.64-3.63,1,0-2.63,2.72,2.85,3.8Z"/><path d="M218.62,247.38a2.19,2.19,0,0,1-.31,1.2,2.4,2.4,0,0,1-.9.83,2.64,2.64,0,0,1-1.25.32l-4.21.08-.16-8.92,4.3-.08a1.75,1.75,0,0,1,1.09.31,2.25,2.25,0,0,1,.72.84,2.42,2.42,0,0,1,.26,1.08,2.31,2.31,0,0,1-.31,1.24,2.09,2.09,0,0,1-.93.86,2.23,2.23,0,0,1,1.23.82A2.42,2.42,0,0,1,218.62,247.38Zm-5.94-5.74.06,3.29,3.07-.06a1.35,1.35,0,0,0,.77-.24,1.74,1.74,0,0,0,.72-1.43,1.84,1.84,0,0,0-.2-.82,1.59,1.59,0,0,0-.53-.59,1.22,1.22,0,0,0-.75-.21Zm5.06,5.61a1.8,1.8,0,0,0-.22-.83,1.71,1.71,0,0,0-.55-.61,1.38,1.38,0,0,0-.79-.23l-3.42.07.06,3.38,3.33-.07a1.44,1.44,0,0,0,.81-.25,1.73,1.73,0,0,0,.57-.63A1.53,1.53,0,0,0,217.74,247.25Z"/><path d="M220.49,251.66l.34,0a.63.63,0,0,0,.23,0,.54.54,0,0,0,.29-.18,2.33,2.33,0,0,0,.32-.58c.12-.29.29-.71.5-1.26l-3-6.48.9,0,2.51,5.61,2.1-5.69.86,0-3.24,8.49a1.43,1.43,0,0,1-.25.45,1.27,1.27,0,0,1-.43.33,1.63,1.63,0,0,1-.63.14l-.24,0-.28,0Z"/><path d="M230.23,249.59a2.54,2.54,0,0,1-1.47-.39,3.33,3.33,0,0,1-1-1l.08,4-.86,0-.17-9.2.77,0,0,1.28a3.11,3.11,0,0,1,1-1,2.65,2.65,0,0,1,1.39-.41,2.71,2.71,0,0,1,1.24.26,2.93,2.93,0,0,1,1,.74,3.74,3.74,0,0,1,.67,1.06,3.62,3.62,0,0,1,.25,1.26,3.77,3.77,0,0,1-.34,1.68,3,3,0,0,1-1,1.25A2.65,2.65,0,0,1,230.23,249.59Zm-.25-.75a2,2,0,0,0,1-.23,2.21,2.21,0,0,0,.72-.61,2.59,2.59,0,0,0,.46-.85,2.89,2.89,0,0,0,.14-1,2.54,2.54,0,0,0-.2-1,2.41,2.41,0,0,0-.53-.83,2.71,2.71,0,0,0-.79-.56,2.23,2.23,0,0,0-1-.19,2.1,2.1,0,0,0-.68.13,2.71,2.71,0,0,0-.66.37,2.66,2.66,0,0,0-.53.53,1.34,1.34,0,0,0-.25.62l0,2a2.88,2.88,0,0,0,.55.82,2.66,2.66,0,0,0,.8.57A2,2,0,0,0,230,248.84Z"/><path d="M234.07,247.52a1.7,1.7,0,0,1,.34-1.06,2.26,2.26,0,0,1,1-.7,3.92,3.92,0,0,1,1.43-.27,5.77,5.77,0,0,1,1,.06,4,4,0,0,1,.92.21v-.56a1.74,1.74,0,0,0-.52-1.3,1.82,1.82,0,0,0-1.36-.46,2.92,2.92,0,0,0-1,.21,6.33,6.33,0,0,0-1,.59l-.33-.59a5.73,5.73,0,0,1,1.24-.69,3.85,3.85,0,0,1,1.25-.24,2.65,2.65,0,0,1,1.93.65,2.54,2.54,0,0,1,.73,1.89l.06,3a.36.36,0,0,0,.08.25.38.38,0,0,0,.24.09v.68l-.24,0a.38.38,0,0,1-.15,0,.62.62,0,0,1-.48-.19.66.66,0,0,1-.18-.4l0-.48a2.88,2.88,0,0,1-1.13.9,3.64,3.64,0,0,1-1.43.33,2.28,2.28,0,0,1-1.14-.25,1.9,1.9,0,0,1-.8-.71A1.84,1.84,0,0,1,234.07,247.52Zm4.4.42a1.85,1.85,0,0,0,.21-.34.68.68,0,0,0,.07-.29l0-.94a5.31,5.31,0,0,0-.89-.24,5.82,5.82,0,0,0-.93-.07,2.84,2.84,0,0,0-1.47.39,1.1,1.1,0,0,0-.55,1,1.34,1.34,0,0,0,.2.67,1.57,1.57,0,0,0,.56.52,1.73,1.73,0,0,0,.86.18,2.8,2.8,0,0,0,1.15-.25A2.2,2.2,0,0,0,238.47,247.94Z"/><path d="M243.64,249.35a4.07,4.07,0,0,1-1.5-.24,3.16,3.16,0,0,1-1.21-.78l.34-.61a3.87,3.87,0,0,0,1.13.73,3.35,3.35,0,0,0,1.19.21,2.3,2.3,0,0,0,1.24-.33,1,1,0,0,0,.46-.89.77.77,0,0,0-.25-.59,1.74,1.74,0,0,0-.67-.32c-.29-.09-.64-.17-1-.27a7.44,7.44,0,0,1-1.15-.37,1.72,1.72,0,0,1-.7-.51,1.34,1.34,0,0,1-.24-.83,1.66,1.66,0,0,1,.3-1.06,1.91,1.91,0,0,1,.86-.65,3.32,3.32,0,0,1,1.25-.25,3.73,3.73,0,0,1,1.34.22,2.4,2.4,0,0,1,.95.65l-.4.58a2.26,2.26,0,0,0-.85-.58,2.85,2.85,0,0,0-1.08-.17,2.42,2.42,0,0,0-.76.12,1.23,1.23,0,0,0-.59.36.91.91,0,0,0-.22.67.77.77,0,0,0,.18.54,1.38,1.38,0,0,0,.54.32c.23.08.52.17.87.26.5.13.93.25,1.3.38a2.29,2.29,0,0,1,.87.52,1.31,1.31,0,0,1,.32.9,1.69,1.69,0,0,1-.67,1.44A3,3,0,0,1,243.64,249.35Z"/><path d="M249.71,249.23a4.07,4.07,0,0,1-1.5-.23,3.16,3.16,0,0,1-1.21-.78l.34-.62a3.76,3.76,0,0,0,1.12.73,3,3,0,0,0,1.2.21,2.24,2.24,0,0,0,1.23-.33,1,1,0,0,0,.47-.88.76.76,0,0,0-.25-.59,1.82,1.82,0,0,0-.67-.33l-1-.26a8.72,8.72,0,0,1-1.15-.37,1.66,1.66,0,0,1-.7-.51,1.41,1.41,0,0,1-.25-.83,1.71,1.71,0,0,1,.31-1.06,1.93,1.93,0,0,1,.86-.66,3.52,3.52,0,0,1,1.25-.24,3.34,3.34,0,0,1,1.34.22,2.46,2.46,0,0,1,.95.64l-.4.59a2.15,2.15,0,0,0-.85-.58,3.06,3.06,0,0,0-1.08-.18,2.69,2.69,0,0,0-.76.13,1.23,1.23,0,0,0-.59.36.91.91,0,0,0-.22.67.77.77,0,0,0,.18.54,1.26,1.26,0,0,0,.54.31c.23.09.52.17.87.27a13.22,13.22,0,0,1,1.3.38,2.17,2.17,0,0,1,.87.52,1.26,1.26,0,0,1,.31.9,1.66,1.66,0,0,1-.66,1.44A3,3,0,0,1,249.71,249.23Z"/></g><g id="hidden_flechas" data-name="hidden flechas"><path class="cls-43" d="M230.23,198.33s18.46,14.21-1.86,37.62"/><polygon class="cls-4" points="228.3 231.36 228.66 235.51 232.81 235.15 231.2 237.07 227.05 237.43 226.69 233.28 228.3 231.36"/><path class="cls-43" d="M121.18,42.24c-5.3-.88,136-6.58,88.19,125.38"/><polygon class="cls-4" points="207.39 162.74 209.5 167.04 213.81 164.93 212.88 167.65 208.58 169.77 206.46 165.47 207.39 162.74"/><path class="cls-43" d="M195.88,253.86s-23.67,14.21-40.86,4"/><polygon class="cls-4" points="160.22 257.17 155.53 258.17 156.53 262.86 154.12 261.3 153.11 256.61 157.8 255.6 160.22 257.17"/><path class="cls-44" d="M100,285.12s3,28.59,22.49,35.83"/><polygon class="cls-4" points="110.76 326.62 121.09 320.54 115 310.21 121.97 312.01 128.06 322.34 117.73 328.42 110.76 326.62"/><path class="cls-44" d="M141.13,183.22s21.5,31-5,50.3"/><polygon class="cls-4" points="139.85 220.96 137.33 232.68 149.05 235.2 143.01 239.1 131.29 236.58 133.81 224.86 139.85 220.96"/><path class="cls-44" d="M65.33,72.75s-4.86,31.93,11.08,49.14"/><polygon class="cls-4" points="63.37 121.37 75.35 120.86 74.83 108.88 80.13 113.74 80.65 125.72 68.67 126.24 63.37 121.37"/><path class="cls-44" d="M304,387.47s22.34,10,38.19,1"/><polygon class="cls-4" points="339.07 401.15 341 389.31 329.16 387.39 335 383.19 346.83 385.11 344.91 396.94 339.07 401.15"/><line class="cls-44" x1="420.65" y1="475.31" x2="433.13" y2="507.95"/><polygon class="cls-4" points="421.77 501.74 432.61 506.58 437.45 495.74 439.99 502.4 435.15 513.23 424.31 508.39 421.77 501.74"/></g><g id="Layer_8" data-name="Layer 8"><path class="cls-45" d="M419.84,430.25l10,30.16c1.16,3.52-1.4,7.53-5.73,9l-9.45,3.13c-4.32,1.43-8.77-.27-9.93-3.79l-9.95-30.07"/><path class="cls-46" d="M394.76,438.64,385,409.06c-1.17-3.52,1.4-7.53,5.72-9l9.45-3.12c4.33-1.43,8.77.26,9.94,3.78l9.75,29.49"/><path class="cls-47" d="M414.26,432.35l7.85,23.74c.92,2.77-.09,5.6-2.26,6.32L415.13,464c-2.16.71-4.66-1-5.58-3.72l-7.83-23.68"/><path class="cls-48" d="M401.72,436.57,394,413.28c-.92-2.77.09-5.6,2.26-6.31l4.72-1.56c2.16-.72,4.66.95,5.58,3.72l7.68,23.22"/><ellipse class="cls-12" cx="396.97" cy="440.44" rx="10.96" ry="13.72" transform="translate(-118.22 146.93) rotate(-18.3)"/><ellipse class="cls-12" cx="418.24" cy="433.4" rx="10.96" ry="13.72" transform="translate(-114.94 153.25) rotate(-18.3)"/></g></g></g></svg>