<svg id="Capa_1" data-name="Capa 1" xmlns="http://www.w3.org/2000/svg" viewBox="0 0 137.73 51.88"><defs><style>.cls-1{fill:#42ac8e;}.cls-2{fill:#86c596;}.cls-3{fill:#7cc6b9;}.cls-4{fill:#d2bd2a;}</style></defs><path class="cls-1" d="M117.94,11.69c6.1,4,11.59,8.89,17.28,13.45,3.4,2.73,3.31,6.56-.11,9.38-6.42,5.32-13,10.43-19.52,15.65a5.41,5.41,0,0,1-3.67,1.11,24.35,24.35,0,0,0-6.5.51q-38.86,0-77.82,0c-3.32,0-6.71.42-10-.82-1.45-.56-2.85,0-4.21.59L10,50.29c-2-1.76-4.6-1.79-6.92-2.65l-.95-1.18C3,43.93,4.25,41.68,6.91,40.6c4.65.16,9.26.45,13.92-.56s9.42-1.93,14.09.44a6.46,6.46,0,0,0,4.74.13C47,38.35,54.26,36.14,61.6,34c6.27-1.8,12-5.31,18.19-7.36a3.9,3.9,0,0,0,3-3.4c1.51-.49,3.19-.7,4.5-1.51A22,22,0,0,1,96.76,19a46.55,46.55,0,0,0,8.42-1.91C109.65,15.78,113.67,13.44,117.94,11.69Z"/><path class="cls-2" d="M82.76,23.27a3.9,3.9,0,0,1-3,3.4c-6.23,2-11.92,5.56-18.19,7.36C54.26,36.14,47,38.35,39.66,40.61a6.46,6.46,0,0,1-4.74-.13C30.25,38.11,25.47,39,20.83,40s-9.27.72-13.91.56C5.29,37,4.49,36.62.3,37.39c0-5.1-.3-10.21-.09-15.3C.51,14.53,6,9.48,13.56,9.33a16,16,0,0,1,2.19,0c3.52.42,6.07-.59,8.63-3.48,6.78-7.64,18.51-7.63,25.82-.51,1.14,1.11,1.95,2.57,3.47,3.28-1,1.44-2.25,1.62-3.8.8a19.84,19.84,0,0,1-2.81-2,6.92,6.92,0,0,0-9.74,1c-1.11,1.23-1.38,2.5.29,3.12,4.43,1.65,5.84,5.45,7,9.39a8,8,0,0,0,6,5.72c1.39.4,2.81.7,4.21,1.11,3.68,1.08,4.35.82,6.24-2.61.64-1.14,1.12-2.39,1.85-3.46,1.72-2.52,3.3-2.57,5.18-.24.64.79,1.09,1.73,1.76,2.49,2.14,2.4,3.65,2.66,5.87.45S80.11,21.71,82.76,23.27Z"/><path class="cls-3" d="M82.76,23.27c-2.65-1.56-4.81-1.07-7,1.13s-3.73,2-5.87-.45c-.67-.76-1.12-1.7-1.76-2.49-1.88-2.33-3.46-2.28-5.18.24-.73,1.07-1.21,2.32-1.85,3.46-1.89,3.43-2.56,3.69-6.24,2.61-1.4-.41-2.82-.71-4.21-1.11a8,8,0,0,1-6-5.72c-1.18-3.94-2.59-7.74-7-9.39-1.67-.62-1.4-1.89-.29-3.12a6.92,6.92,0,0,1,9.74-1,19.84,19.84,0,0,0,2.81,2.05c1.55.82,2.78.64,3.8-.8,2.73-.07,5.46-.27,8.19-.18a5.63,5.63,0,0,0,4.86-2.12c2.59-3,5.7-5.26,9.85-5.63a27.44,27.44,0,0,0,1.26,3.71c.69,1.38,2.18,2.77,3.47,2C83.78,4.8,87.13,5.3,89.11,2.8A8.17,8.17,0,0,1,93.65,6c1.41,2.08,3.21,2.56,5.55,2.47,3.75-.13,7.52.14,11.27-.08,3.18-.19,5.65.71,7.47,3.33-4.27,1.75-8.29,4.09-12.76,5.41A46.55,46.55,0,0,1,96.76,19a22,22,0,0,0-9.5,2.75C86,22.57,84.27,22.78,82.76,23.27Z"/><path class="cls-4" d="M13.43,51.58c1.36-.56,2.76-1.15,4.21-.59,3.25,1.24,6.64.82,10,.82q38.93,0,77.82,0c0-1-.8-.41-1.09-.41-6.72-.05-13.43,0-20.15,0l-70.5-.05a3.15,3.15,0,0,0-.43.05Z"/><path class="cls-2" d="M89.11,2.8c-2,2.5-5.33,2-7.81,3.57-1.29.81-2.78-.58-3.47-2A27.44,27.44,0,0,1,76.57.7,13.43,13.43,0,0,1,89.11,2.8Z"/><path class="cls-4" d="M.3,37.39c4.19-.77,5-.38,6.62,3.21C4.25,41.68,3,43.93,2.12,46.46-.34,43.8-.21,40.63.3,37.39Z"/><path class="cls-4" d="M3.07,47.64c2.32.86,5,.89,6.92,2.65C6.94,51.34,5.09,49.27,3.07,47.64Z"/></svg>