<svg id="Capa_1" data-name="Capa 1" xmlns="http://www.w3.org/2000/svg" viewBox="0 0 66.1 71.36"><defs><style>.cls-1{fill:#7ec7b8;}.cls-2{fill:#43ac8e;}</style></defs><path class="cls-1" d="M27.39,45.56a130.69,130.69,0,0,1,0,16.2A11.92,11.92,0,0,0,23.47,69c-5.8,3.39-12,2.52-17.89.85C1.82,68.82,0,65.42,0,61.16c.09-14.33,0-28.65.07-43,0-5.65,3.54-9.26,9.19-9.57a37.07,37.07,0,0,1,9,.24c-.53,8.09.2,16,3.69,23.42.49,1,0,2-.16,3C20.8,40.5,22.26,43.1,27.39,45.56Z"/><path class="cls-2" d="M27.39,45.56c-5.13-2.46-6.59-5.06-5.61-10.24.2-1,.65-2,.16-3C18.45,24.83,17.72,17,18.25,8.86c5.3-.08,10.61-.28,15.91-.21,2.48,0,3.65-.74,3.41-3.33a8.06,8.06,0,0,1,.21-2.63C38.46,0,40.08-.8,42.43.91,49.73,6.2,57,11.57,64.09,17.13c2.82,2.2,2.64,4.77-.35,7Q53.36,32,42.73,39.46c-3,2.14-4.82,1.18-5.3-2.53a10.53,10.53,0,0,1,0-1.59c.21-5.27-.68-4.57-4.72-4.59-5.07,0-5.06,0-5.11,5.27C27.54,39.2,27.45,42.38,27.39,45.56Z"/><path class="cls-2" d="M23.47,69a11.92,11.92,0,0,1,3.94-7.28A6.33,6.33,0,0,1,23.47,69Z"/></svg>