<svg id="Capa_1" data-name="Capa 1" xmlns="http://www.w3.org/2000/svg" viewBox="0 0 75.79 38.08"><defs><style>.cls-1{fill:#43ac8e;}.cls-2{fill:#7ec7b8;}.cls-3{fill:#84c496;}</style></defs><path class="cls-1" d="M41.15.38c14.54,1.23,24.57,8.9,31,21.68a7.34,7.34,0,0,1,1,4.58c-3.37,2.44-6.36,5.42-10.23,7.14-2.08.93-3.9,4.27-6.39.51-.15-.24-1.1-.22-1.5,0-2.92,1.64-4.4,0-5.95-2.23-2.89-4.16-3.3-4.24-7.35-1.32-1.48,1.06-2.73,1.42-4.32.51-1.37-.78-3-1.14-4-2.52,2.77-3.81,5.67-7.55,5.44-12.66a3.41,3.41,0,0,1,1.24-2.78c2-1.7,1.79-4,1.93-6.24S40.92,2.68,41.15.38Z"/><path class="cls-2" d="M41.15.38c-.23,2.3,1.1,4.35,1,6.68s0,4.54-1.93,6.24a3.41,3.41,0,0,0-1.24,2.78c.23,5.11-2.67,8.85-5.44,12.66a17.1,17.1,0,0,1-4.14-.4A171.24,171.24,0,0,1,4.41,21.09C8.9,10.69,17.15,4.67,27.64,1.38A29.13,29.13,0,0,1,41.15.38Z"/><path class="cls-3" d="M4.41,21.09a171.24,171.24,0,0,0,25,7.25,17.1,17.1,0,0,0,4.14.4c1,1.38,2.59,1.74,4,2.52,1.59.91,2.84.55,4.32-.51,4-2.92,4.46-2.84,7.35,1.32,1.55,2.22,3,3.87,5.95,2.23.4-.23,1.35-.25,1.5,0,2.49,3.76,4.31.42,6.39-.51,3.87-1.72,6.86-4.7,10.23-7.14a11.22,11.22,0,0,1,1.28,2.28c2.44,8.47,2.12,8.94-6.5,9q-31.37.12-62.74.18c-.88,0-1.77,0-2.66,0C.81,38.15-.21,37.34,0,35.57.73,30.52.86,25.28,4.41,21.09Z"/></svg>