<svg id="Layer_1" data-name="Layer 1" xmlns="http://www.w3.org/2000/svg" viewBox="0 0 1280 267"><defs><style>.cls-1{fill:#f5b400;}.cls-2{fill:#4cc1be;}.cls-3{fill:#a3da4b;}.cls-4{fill:#bfebce;}.cls-5{fill:#b5e55a;}.cls-6{fill:#318c5a;}</style></defs><path class="cls-1" d="M40.19,132.17a9.72,9.72,0,0,1-.13-19.43A9.74,9.74,0,0,1,47,115.48a9.72,9.72,0,0,1-6.63,16.69Zm0-16.68h-.1a7,7,0,0,0,.09,13.93h.11a7,7,0,0,0-.1-13.93Z"/><path class="cls-2" d="M143.63,169c-12.72,15.95-36.43,18.19-53,5S71,137.17,83.74,121.22s79.11-28.09,79.11-28.09C163.84,94,156.34,153,143.63,169Z"/><path class="cls-3" d="M77,80.19S75.14,63.84,57.73,55.38s-6.59-46.31,22-35.88,29.9,43.39,27.92,54.06c-1.33,7.2-7.63,26-25.94,27a2.24,2.24,0,0,1-.58,0c-1.47-.25-7.49-1.74-6-8.92C77,83.41,77.13,82.17,77,80.19Z"/><path class="cls-3" d="M59.36,186.18a19.62,19.62,0,0,1-18-1.48c-9.57-5.74-24.42,11.4-10.37,21.93s30.36.77,34.89-3.55c3-2.91,10.13-11.87,4.84-21a1.64,1.64,0,0,0-.2-.26,4,4,0,0,0-6.18-.06C60.9,185.15,60.36,185.62,59.36,186.18Z"/><circle class="cls-4" cx="142.78" cy="53.22" r="3.38"/><path class="cls-4" d="M116.7,207.63c-.51,4.14-1,7.81-1.3,11.39a67.46,67.46,0,0,0-.17,10.31,16.12,16.12,0,0,0,.21,2.5l.29,2.49c.38,1.63.57,3.34,1.1,5a23.93,23.93,0,0,0,.68,2.58c.3.85.57,1.73.84,2.63.52,1.83,1.35,3.54,1.87,5.66a23.25,23.25,0,0,1-2.72-1.51,12.91,12.91,0,0,1-2.51-1.87c-.75-.71-1.49-1.46-2.21-2.24-.18-.2-.37-.39-.54-.59l-.45-.65c-.3-.44-.6-.87-.88-1.33a25.44,25.44,0,0,1-2.79-5.8,29.37,29.37,0,0,1-1.14-6.37,27.66,27.66,0,0,1,2.15-12.46A22.75,22.75,0,0,1,116.7,207.63Z"/><circle class="cls-1" cx="187.59" cy="50.93" r="18.35"/><path class="cls-5" d="M180.34,150.22a5.51,5.51,0,0,1-3.79-9.51c3.85-3.66,13.62-15.22,12.73-24.77a5.51,5.51,0,0,1,11-1c1.57,16.87-15.4,33.12-16.12,33.8A5.5,5.5,0,0,1,180.34,150.22Z"/><path class="cls-6" d="M148.81,195.6c.35,0,.69,0,1,0a15.75,15.75,0,0,1,2.47.22,54.15,54.15,0,0,1,39,29.23c.19.39.4.77.62,1.14,8.19,14.19,29.45,8.36,30.15-8a23.25,23.25,0,0,0-.52-6.64c-5.33-21.32-28.28-34-51.26-28.2A45,45,0,0,0,148.81,195.6Z"/><path class="cls-1" d="M317.61-7.92A9.63,9.63,0,0,1,319.37-15a9.64,9.64,0,0,1,6.35-3.88A9.62,9.62,0,0,1,333-17.14a9.64,9.64,0,0,1,3.88,6.34,9.72,9.72,0,0,1-1.74,7.23A9.69,9.69,0,0,1,328.74.32a9.73,9.73,0,0,1-11.11-8.09C317.62-7.82,317.62-7.87,317.61-7.92Zm16.52-2.34a.43.43,0,0,1,0-.11,7,7,0,0,0-8-5.79,7,7,0,0,0-5.81,7.86s0,.06,0,.1a7,7,0,0,0,8,5.8A7,7,0,0,0,334.13-10.26Z"/><path class="cls-2" d="M295.79,99.68C278.2,89.34,272.64,66.18,283.36,48S317,23.31,334.6,33.65s39,74.35,39,74.35C372.85,109.11,313.37,110,295.79,99.68Z"/><path class="cls-3" d="M374.27,21.19S390.2,17,396.11-1.4,441-14.47,434.74,15.35,396,51.08,385.17,50.63c-7.31-.3-26.8-3.88-30.36-21.88a2.2,2.2,0,0,1-.05-.57c0-1.49.67-7.67,8-7.15C371.07,21.61,372.32,21.59,374.27,21.19Z"/><path class="cls-3" d="M266.85,18.68A19.62,19.62,0,0,1,265.77.61C270.1-9.68,251-22,242.59-6.56s3.53,30.16,8.44,34c3.31,2.62,13.18,8.36,21.49,1.83a1.36,1.36,0,0,0,.24-.24,4,4,0,0,0-.81-6.12C268.09,20.07,267.55,19.59,266.85,18.68Z"/><circle class="cls-4" cx="410.25" cy="82.5" r="3.38"/><path class="cls-4" d="M253.72,78.48c-4.17.08-7.88.12-11.47.32A67.75,67.75,0,0,0,232,80.09a15.43,15.43,0,0,0-2.44.56l-2.43.64c-1.56.61-3.23,1-4.8,1.79a26.06,26.06,0,0,0-2.45,1q-1.2.61-2.49,1.2c-1.73.78-3.31,1.84-5.34,2.65a23.15,23.15,0,0,1,1.12-2.9,13,13,0,0,1,1.49-2.75c.6-.85,1.24-1.69,1.91-2.51.17-.2.33-.42.51-.61l.58-.54c.39-.35.78-.72,1.19-1.06A25.38,25.38,0,0,1,224.22,74a28.32,28.32,0,0,1,6.14-2,27.36,27.36,0,0,1,12.64.37A22.69,22.69,0,0,1,253.72,78.48Z"/><circle class="cls-1" cx="404.85" cy="127.52" r="18.35"/><path class="cls-5" d="M319.54,133.38a5.51,5.51,0,0,1,8.88-5.1c4.16,3.29,17,11.33,26.32,9.1a5.51,5.51,0,0,1,2.56,10.72c-16.47,3.93-35-10.57-35.74-11.19A5.5,5.5,0,0,1,319.54,133.38Z"/><path class="cls-6" d="M270.16,108.57c.06.35.11.68.16,1a15.92,15.92,0,0,1,.13,2.49A54.09,54.09,0,0,1,247,154.79c-.36.25-.71.5-1.05.77-12.88,10.12-4.11,30.34,12.2,28.72a23.12,23.12,0,0,0,6.49-1.45C285,174.54,294.28,150,285.35,128.1A45.15,45.15,0,0,0,270.16,108.57Z"/><path class="cls-1" d="M303.19,274.17a9.72,9.72,0,0,1-.13-19.43,9.74,9.74,0,0,1,6.91,2.74,9.72,9.72,0,0,1-6.63,16.69Zm0-16.68h-.1a7,7,0,0,0,.09,13.93h.11a7,7,0,0,0-.1-13.93Z"/><path class="cls-2" d="M406.63,311c-12.72,15.95-36.43,18.19-53,5s-19.64-36.8-6.92-52.75,79.11-28.09,79.11-28.09C426.84,236,419.34,295,406.63,311Z"/><path class="cls-3" d="M340,222.19s-1.86-16.35-19.27-24.81-6.59-46.31,22-35.88,29.9,43.39,27.92,54.06c-1.33,7.2-7.63,26-25.94,27a2.24,2.24,0,0,1-.58,0c-1.47-.25-7.49-1.74-5.95-8.92C340,225.41,340.13,224.17,340,222.19Z"/><circle class="cls-4" cx="405.78" cy="195.22" r="3.38"/><circle class="cls-1" cx="449.59" cy="206.93" r="18.35"/><path class="cls-5" d="M443.34,292.22a5.51,5.51,0,0,1-3.79-9.51c3.85-3.66,13.62-15.22,12.73-24.77a5.51,5.51,0,1,1,11-1c1.57,16.87-15.4,33.12-16.12,33.8A5.5,5.5,0,0,1,443.34,292.22Z"/><path class="cls-2" d="M646.85,318.41c-8.61,18.49-31.13,26.23-50.3,17.3s-27.74-31.16-19.13-49.64,70.3-45.9,70.3-45.9C648.89,240.8,655.46,299.92,646.85,318.41Z"/><path class="cls-3" d="M562,233.19s-1.86-16.35-19.27-24.81-6.59-46.31,22-35.88,29.9,43.39,27.92,54.06c-1.33,7.2-7.63,26-25.94,27a2.24,2.24,0,0,1-.58,0c-1.47-.25-7.49-1.74-5.95-8.92C562,236.41,562.13,235.17,562,233.19Z"/><circle class="cls-4" cx="637.78" cy="208.22" r="3.38"/><circle class="cls-1" cx="681.59" cy="219.93" r="18.35"/><path class="cls-5" d="M704.34,289.22a5.51,5.51,0,0,1-3.79-9.51c3.85-3.66,13.62-15.22,12.73-24.77a5.51,5.51,0,1,1,11-1c1.57,16.87-15.4,33.12-16.12,33.8A5.5,5.5,0,0,1,704.34,289.22Z"/><path class="cls-1" d="M823.58,90.6a9.56,9.56,0,1,1,0-.15A.76.76,0,0,1,823.58,90.6Zm-16.65-1a.41.41,0,0,1,0,.11,7,7,0,0,0,13.91.69.38.38,0,0,0,0-.1,7,7,0,0,0-13.91-.7Z"/><path class="cls-2" d="M866.19-10.58c15.2,13.59,16.09,37.4,2,53.16S830.32,60.1,815.12,46.5s-23.56-80.58-23.56-80.58C792.5-35,851-24.18,866.19-10.58Z"/><path class="cls-3" d="M773.77,50.9s-16.43.92-25.87,17.83-46.6,4-34.56-24,45-27.39,55.55-24.81C776,21.61,794.4,29,794.35,47.31a3.68,3.68,0,0,1-.07.58c-.34,1.45-2.17,7.38-9.25,5.43C777,51.11,775.76,50.88,773.77,50.9Z"/><path class="cls-3" d="M878.59,74.53a19.6,19.6,0,0,1-2.51,17.93c-6.27,9.23,10,25,21.32,11.6s2.48-30.27-1.57-35c-2.73-3.22-11.27-10.79-20.71-6a1.67,1.67,0,0,0-.28.18,4,4,0,0,0-.41,6.17C877.65,72.92,878.08,73.5,878.59,74.53Z"/><path class="cls-4" d="M903.26,18.5c4.1.74,7.74,1.43,11.3,1.94a66.4,66.4,0,0,0,10.28.75,16,16,0,0,0,2.5-.06l2.51-.16c1.65-.28,3.37-.37,5.06-.81a24.14,24.14,0,0,0,2.61-.53c.86-.25,1.76-.47,2.68-.69,1.85-.42,3.61-1.15,5.75-1.54A24.18,24.18,0,0,1,944.29,20a13.62,13.62,0,0,1-2,2.4c-.76.7-1.54,1.4-2.36,2.08l-.62.5-.68.41c-.45.27-.9.55-1.37.81a25.89,25.89,0,0,1-6,2.45,28.39,28.39,0,0,1-6.42.77,27.47,27.47,0,0,1-12.33-2.85A22.69,22.69,0,0,1,903.26,18.5Z"/><circle class="cls-1" cx="46.75" cy="262.62" r="18.35"/><path class="cls-1" d="M960.72,211.81a9.42,9.42,0,1,1-.13.06Zm7.37,15,.09-.05a7,7,0,0,0-6.24-12.45l-.09,0a7,7,0,0,0,6.24,12.46Z"/><path class="cls-2" d="M851.67,224.5c4.36-19.92,24.65-32.41,45.31-27.89S930.86,221,926.5,240.87,867.94,301,867.94,301C866.66,300.68,847.32,244.42,851.67,224.5Z"/><path class="cls-3" d="M1014.67,259.7s8.9,13.85,28.26,13.75,26.37,38.62-3.92,41.92-46-25.71-48.94-36.15c-2-7.05-4.63-26.68,11.36-35.66a2.5,2.5,0,0,1,.53-.23c1.43-.42,7.49-1.74,9.28,5.38C1013.27,256.8,1013.68,258,1014.67,259.7Z"/><path class="cls-3" d="M919.67,171.83a19.61,19.61,0,0,1,16.84-6.65c11.13.92,16.87-21-.39-24.26s-27.57,12.73-29.72,18.6c-1.46,4-3.85,15.13,4.94,21a1.4,1.4,0,0,0,.3.15,4,4,0,0,0,5.57-2.68C918.74,173.43,919,172.77,919.67,171.83Z"/><path class="cls-4" d="M858.75,177.92c-1.37-3.93-2.56-7.44-3.86-10.79a68.5,68.5,0,0,0-4.41-9.32,16.54,16.54,0,0,0-1.29-2.15l-1.37-2.11c-1.06-1.29-2-2.75-3.19-4-.6-.63-1.08-1.43-1.75-2s-1.27-1.29-1.91-2c-1.28-1.4-2.79-2.57-4.18-4.25a23,23,0,0,1,3.1.16A13.72,13.72,0,0,1,843,142c1,.32,2,.66,3,1,.24.1.5.18.74.29l.69.39c.46.26.93.51,1.38.8a26,26,0,0,1,5.06,4,28.3,28.3,0,0,1,3.83,5.21,27.43,27.43,0,0,1,3.58,12.13A22.67,22.67,0,0,1,858.75,177.92Z"/><path class="cls-5" d="M827,257.55a5.51,5.51,0,0,1,7.6,6.85c-1.84,5-5.49,19.67-.47,27.85a5.51,5.51,0,0,1-9.39,5.76c-8.86-14.43-.82-36.51-.47-37.44A5.49,5.49,0,0,1,827,257.55Z"/><path class="cls-6" d="M835.26,202.9c-.31.17-.61.33-.91.47a14.85,14.85,0,0,1-2.32.9,54.12,54.12,0,0,1-47.89-9c-.35-.27-.7-.52-1.06-.76C769.46,185.41,753,200,759.57,215a23.57,23.57,0,0,0,3.4,5.73c14.2,16.77,40.37,18,58.45,2.65A45.18,45.18,0,0,0,835.26,202.9Z"/><path class="cls-1" d="M1143.72,62.81a9.42,9.42,0,1,1-.13.06Zm7.37,15,.09,0a7,7,0,0,0-6.24-12.45l-.09,0a7,7,0,0,0,6.24,12.46Z"/><path class="cls-2" d="M1034.67,75.5c4.36-19.92,24.65-32.41,45.31-27.89S1113.86,72,1109.5,91.87,1050.94,152,1050.94,152C1049.66,151.68,1030.32,95.42,1034.67,75.5Z"/><path class="cls-3" d="M1133.67,125.7s8.9,13.85,28.26,13.75,26.37,38.62-3.92,41.92-46-25.71-48.94-36.15c-2-7.05-4.63-26.68,11.36-35.66a2.5,2.5,0,0,1,.53-.23c1.43-.42,7.49-1.74,9.28,5.38C1132.27,122.8,1132.68,124,1133.67,125.7Z"/><path class="cls-3" d="M1102.67,22.83a19.61,19.61,0,0,1,16.84-6.65c11.13.92,16.87-21-.39-24.26s-27.57,12.73-29.72,18.6c-1.46,4-3.85,15.13,4.94,21a1.4,1.4,0,0,0,.3.15,4,4,0,0,0,5.57-2.68C1101.74,24.43,1102,23.77,1102.67,22.83Z"/><circle class="cls-4" cx="1086.58" cy="178.96" r="3.38"/><path class="cls-4" d="M1041.75,28.92c-1.37-3.93-2.56-7.44-3.86-10.79a68.5,68.5,0,0,0-4.41-9.32,16.54,16.54,0,0,0-1.29-2.15l-1.37-2.11c-1.06-1.29-2-2.75-3.19-4-.6-.63-1.08-1.43-1.75-2s-1.27-1.29-1.91-2c-1.28-1.4-2.79-2.57-4.18-4.25a23,23,0,0,1,3.1.16A13.72,13.72,0,0,1,1026-7c1,.32,2,.66,3,1,.24.1.5.18.74.29l.69.39c.46.26.93.51,1.38.8a26,26,0,0,1,5.06,4,28.3,28.3,0,0,1,3.83,5.21,27.43,27.43,0,0,1,3.58,12.13A22.67,22.67,0,0,1,1041.75,28.92Z"/><circle class="cls-1" cx="1042.11" cy="187.82" r="18.35"/><path class="cls-5" d="M1010,108.55a5.51,5.51,0,0,1,7.6,6.85c-1.84,5-5.49,19.67-.47,27.85a5.51,5.51,0,0,1-9.39,5.76c-8.86-14.43-.82-36.51-.47-37.44A5.49,5.49,0,0,1,1010,108.55Z"/><path class="cls-6" d="M1018.26,53.9c-.31.17-.61.33-.91.47a14.85,14.85,0,0,1-2.32.9,54.12,54.12,0,0,1-47.89-9c-.35-.27-.7-.52-1.06-.76C952.46,36.41,936,51,942.57,66a23.57,23.57,0,0,0,3.4,5.73c14.2,16.77,40.37,18,58.45,2.65A45.18,45.18,0,0,0,1018.26,53.9Z"/><path class="cls-1" d="M1197,201.64a9.49,9.49,0,1,1,0,.14Zm16.68-.28s0-.06,0-.1a7,7,0,0,0-13.92.33v.11a7,7,0,0,0,13.93-.34Z"/><path class="cls-2" d="M1150.89,322.67c-16.16-12.44-18.8-36.11-5.89-52.87s36.47-20.25,52.62-7.81S1227,340.62,1227,340.62C1226.17,341.63,1167,335.12,1150.89,322.67Z"/><path class="cls-3" d="M1246.54,231.57s16.32-2.13,24.49-19.69,46.18-7.36,36.24,21.44-42.88,30.62-53.59,28.83c-7.22-1.21-26.1-7.2-27.4-25.49a2.79,2.79,0,0,1,0-.58c.23-1.47,1.62-7.52,8.82-6.1C1243.31,231.59,1244.56,231.73,1246.54,231.57Z"/><path class="cls-3" d="M1132.27,238.71a19.64,19.64,0,0,1,1.18-18.08c5.58-9.66-11.81-24.22-22.11-10s-.25,30.37,4.14,34.83c3,3,12,9.93,21.09,4.48a1.05,1.05,0,0,0,.27-.2,4,4,0,0,0,0-6.18C1133.32,240.23,1132.85,239.69,1132.27,238.71Z"/><path class="cls-1" d="M630.41,141.21a9.86,9.86,0,1,1-.12-.08Zm-9.55,13.68.08.06a7,7,0,0,0,7.89-11.48l-.08-.06a7,7,0,0,0-7.89,11.48Z"/><path class="cls-2" d="M545.68,67.67c15-13.84,38.76-12.47,53.11,3.06s13.86,39.34-1.12,53.19-82.44,15.82-82.44,15.82C514.38,138.72,530.71,81.51,545.68,67.67Z"/><path class="cls-3" d="M488.48,108.79s-7.84,14.47,1.61,31.38S469,181.91,451.49,157s.3-52.69,8-60.31c5.21-5.15,21.12-17,36.71-7.28a2.71,2.71,0,0,1,.46.36c1.05,1,5.14,5.72-.23,10.72C490.35,106.16,489.51,107.09,488.48,108.79Z"/><path class="cls-3" d="M645.59,86A19.62,19.62,0,0,1,659.54,97.5c4.57,10.18,26.56,4.62,21.06-12.06s-24.46-18-30.64-17c-4.17.64-15.11,3.94-16,14.47a1.3,1.3,0,0,0,0,.34,4,4,0,0,0,5,3.58C643.73,85.92,644.45,85.85,645.59,86Z"/><circle class="cls-4" cx="498.1" cy="194.27" r="3.38"/><path class="cls-4" d="M610.84,35.56c2.78-3.1,5.28-5.84,7.58-8.6a68.48,68.48,0,0,0,6-8.36,16.78,16.78,0,0,0,1.26-2.17l1.18-2.21c.62-1.56,1.45-3.07,2-4.73.26-.83.72-1.63.91-2.51s.52-1.74.82-2.63c.61-1.8.91-3.68,1.7-5.71a23.27,23.27,0,0,1,1.37,2.79,13.46,13.46,0,0,1,1,3c.2,1,.39,2.05.53,3.11,0,.26.08.52.1.79v.79c0,.52,0,1.06,0,1.59a25.6,25.6,0,0,1-1,6.35,29,29,0,0,1-2.71,5.87,27.64,27.64,0,0,1-8.9,9A22.75,22.75,0,0,1,610.84,35.56Z"/><circle class="cls-1" cx="777.87" cy="125.6" r="18.35"/><path class="cls-5" d="M526.79,39.23a5.51,5.51,0,0,1-2.33,10c-5.25.79-19.88,4.69-24.61,13a5.51,5.51,0,0,1-9.58-5.44c8.36-14.73,31.57-18.34,32.56-18.49A5.45,5.45,0,0,1,526.79,39.23Z"/><path class="cls-6" d="M556.62,24.05l-.86-.57a16.09,16.09,0,0,1-1.9-1.6A54.1,54.1,0,0,1,538.61-24.4q.09-.64.15-1.29c1.39-16.33-19.38-23.7-29.32-10.68a23.48,23.48,0,0,0-3.37,5.74c-7.83,20.54,3.77,44,25.9,52.46A45,45,0,0,0,556.62,24.05Z"/><path class="cls-2" d="M1259.1-1.84c14.19-14.65,38-14.6,53.2.11s16,38.51,1.84,53.16-81.45,20.38-81.45,20.38C1231.79,70.83,1244.92,12.81,1259.1-1.84Z"/><circle class="cls-4" cx="1248.84" cy="113.46" r="3.38"/><circle class="cls-1" cx="1206.36" cy="97.6" r="18.35"/><path class="cls-5" d="M1220.76,13.31a5.51,5.51,0,0,1,2.86,9.83c-4.18,3.26-15,13.84-15,23.43a5.51,5.51,0,0,1-11,0c0-16.94,18.5-31.48,19.29-32.1A5.49,5.49,0,0,1,1220.76,13.31Z"/><path class="cls-5" d="M156.8,296.55A5.51,5.51,0,0,1,153,287c3.84-3.65,13.61-15.22,12.72-24.77a5.51,5.51,0,0,1,11-1c1.57,16.86-15.4,33.11-16.12,33.8A5.51,5.51,0,0,1,156.8,296.55Z"/><circle class="cls-4" cx="717.07" cy="151.66" r="4.63"/></svg>