<svg id="Capa_1" data-name="Capa 1" xmlns="http://www.w3.org/2000/svg" viewBox="0 0 59.6 62.47"><defs><style>.cls-1{fill:#43ac8e;}.cls-2{fill:#84c496;}.cls-3{fill:#d2be31;}</style></defs><path class="cls-1" d="M3.2,1C4.93-.18,6.9,0,8.84,0c14,0,27.91,0,41.87,0,7,0,8.67,1.71,8.73,8.78,0,3.71.17,7.42.16,11.13,0,4.44-1.94,6.4-6.36,6.63-.18,0-.36,0-.53,0-2.91.35-6.52-1.34-8.56,1-1.78,2-.46,5.45-.64,8.24-.12,1.76-.14,3.53-.2,5.29C24.74,32.92,12.23,18.7,3.2,1Z"/><path class="cls-2" d="M3.2,1c9,17.7,21.54,31.92,40.11,40.08a22.19,22.19,0,0,1,0,6.51c-2.3,4.16-3.82,8.81-7.7,12-.69.56-.43,1.61-.36,2.47-3.32.67-6.69.38-10,.3C19.47,62.19,16.2,58.85,16,53c-.13-4.23,0-8.48,0-12.72V32.84c0-6.46,0-6.46-6.22-6.49-1.24,0-2.48.06-3.71,0-3.93-.27-5.77-1.95-5.93-6C-.08,15.59,0,10.81.08,6,.1,3.78.91,1.91,3.2,1ZM28.25,57.94c2.15-.4,2.53-2,2.43-3.87,0-.67,0-1.42-.9-1.65-1.11-.3-3.2,2.62-3,4.24C26.88,57.45,27.44,57.81,28.25,57.94Z"/><path class="cls-1" d="M35.29,62c-.07-.86-.33-1.91.36-2.47,3.88-3.17,5.4-7.82,7.7-12a17.33,17.33,0,0,1,.39,5.74C43.46,58.71,41.08,61.13,35.29,62Z"/><path class="cls-3" d="M28.25,57.94c-.81-.13-1.37-.49-1.47-1.28-.2-1.62,1.89-4.54,3-4.24.86.23.87,1,.9,1.65C30.78,56,30.4,57.54,28.25,57.94Z"/></svg>